<?xml version="1.0" encoding="UTF-8"?><svg viewBox="4485 4606 1028 786" xmlns="http://www.w3.org/2000/svg" version="1.1"><ITMZ contentOffset="{1414.5, 1375.5}" zoomScale="0.374855" /><path fill="none" stroke="#000000" stroke-width="12.000000"  stroke-linecap="round" d=" M4500.0 4732.4 Q4500.0 4732.4 4498.8 4740.5 Q4497.6 4748.5 4497.6 4752.2 Q4497.6 4756.0 4497.6 4759.9 Q4497.6 4763.9 4497.9 4769.1 Q4498.0 4774.5 4498.5 4780.0 Q4499.0 4785.5 4499.2 4789.6 Q4499.5 4793.9 4500.0 4798.5 Q4500.4 4803.0 4500.6 4807.5 Q4500.9 4811.9 4501.0 4815.4 Q4501.4 4818.8 4501.5 4823.0 Q4501.8 4827.1 4501.8 4831.2 Q4501.8 4835.5 4502.0 4838.6 Q4502.2 4841.9 4502.5 4845.4 Q4502.8 4848.9 4503.0 4851.9 Q4503.1 4854.9 4503.1 4857.4 Q4503.1 4860.0 4503.1 4864.0 Q4503.1 4868.2 4503.4 4870.5 Q4503.6 4872.9 4503.9 4875.6 Q4504.0 4878.4 4504.0 4881.0 Q4504.0 4883.5 4504.0 4886.2" /><path fill="none" stroke="#000000" stroke-width="12.000000"  stroke-linecap="round" d=" M4507.8 4731.0 Q4507.8 4731.0 4514.2 4729.6 Q4520.8 4728.2 4525.5 4727.8 Q4530.5 4727.4 4533.5 4727.0 Q4536.5 4726.9 4539.5 4726.9 Q4542.5 4726.9 4546.1 4726.6 Q4549.9 4726.4 4554.2 4726.0 Q4558.6 4725.5 4561.6 4725.2 Q4564.6 4725.0 4568.4 4724.8 Q4572.0 4724.5 4576.6 4724.0 Q4581.2 4723.6 4585.5 4723.4 Q4589.5 4723.1 4594.5 4723.0 Q4599.2 4722.6 4604.1 4722.6 Q4609.0 4722.6 4613.1 4722.5 Q4617.2 4722.2 4622.0 4721.8 Q4626.5 4721.4 4630.2 4721.4 Q4634.0 4721.4 4637.9 4721.0 Q4641.8 4720.9 4646.1 4720.6 Q4650.5 4720.4 4653.8 4720.1 Q4657.0 4720.0 4660.5 4719.6 Q4664.0 4719.5 4667.5 4719.2 Q4670.9 4719.0 4674.1 4719.0 Q4677.4 4719.0 4679.9 4719.0 Q4682.5 4719.0 4685.1 4718.8 Q4688.0 4718.5 4691.0 4718.4 Q4694.0 4718.0 4696.5 4718.0 Q4699.0 4718.0 4701.4 4718.0 Q4703.6 4718.0 4707.9 4717.9 Q4712.0 4717.6 4714.4 4717.4 Q4716.6 4717.1 4720.8 4716.6 Q4725.0 4716.2 4728.4 4715.8 Q4731.9 4715.4 4734.6 4715.0 Q4737.5 4714.9 4740.6 4714.4 Q4743.9 4714.0 4747.1 4713.6 Q4750.4 4713.5 4753.1 4713.5 Q4755.9 4713.5 4758.5 4713.5 Q4761.0 4713.5 4763.5 4713.5 Q4766.0 4713.5 4768.9 4713.5 Q4771.5 4713.5 4774.0 4713.5 Q4776.2 4713.5 4778.0 4715.0 Q4780.0 4716.6 4780.0 4719.5 Q4780.0 4722.2 4780.1 4725.6 Q4780.4 4729.1 4780.4 4734.5 Q4780.4 4739.8 4780.6 4742.5 Q4780.9 4745.4 4781.0 4748.5 Q4781.2 4751.9 4781.8 4756.1 Q4782.2 4760.5 4782.5 4764.2 Q4782.6 4768.0 4783.0 4772.1 Q4783.1 4776.2 4783.4 4780.2 Q4783.6 4784.1 4783.9 4787.1 Q4784.0 4790.1 4784.4 4793.4 Q4784.5 4796.6 4784.5 4799.6 Q4784.5 4802.6 4784.8 4805.9 Q4785.0 4809.0 4785.2 4811.9 Q4785.5 4814.6 4785.6 4817.0 Q4786.0 4819.2 4786.0 4822.0 Q4786.0 4824.8 4786.1 4827.4 Q4786.4 4829.9 4786.6 4832.1 Q4786.9 4834.5 4786.9 4838.1 Q4786.9 4841.9 4786.9 4844.9 Q4786.9 4848.0 4786.9 4850.2 Q4786.9 4852.5 4787.0 4855.2 Q4787.4 4858.0 4787.8 4860.9 Q4788.2 4863.6 4788.5 4866.1" /><path fill="none" stroke="#000000" stroke-width="12.000000"  stroke-linecap="round" d=" M4501.8 4888.5 Q4501.8 4888.5 4512.0 4887.9 Q4522.1 4887.1 4527.1 4887.1 Q4532.2 4887.1 4536.9 4887.1 Q4541.5 4887.1 4547.5 4887.1 Q4553.5 4887.1 4558.0 4887.0 Q4562.4 4886.8 4568.0 4886.5 Q4573.9 4886.2 4578.5 4885.8 Q4583.0 4885.4 4588.0 4884.9 Q4592.8 4884.4 4598.5 4883.5 Q4604.4 4882.5 4608.8 4882.0 Q4613.1 4881.6 4618.6 4881.0 Q4624.2 4880.2 4628.6 4879.5 Q4633.0 4878.9 4637.9 4878.1 Q4642.6 4877.5 4647.5 4877.2 Q4652.4 4877.0 4656.8 4876.4 Q4661.1 4875.6 4665.8 4875.4 Q4670.5 4875.1 4674.9 4874.6 Q4679.1 4874.2 4683.4 4873.8 Q4687.5 4873.4 4691.9 4872.9 Q4696.2 4872.4 4700.5 4872.0 Q4704.6 4871.5 4707.9 4871.2 Q4711.0 4871.0 4714.8 4870.8 Q4718.5 4870.5 4722.0 4870.4 Q4725.4 4870.0 4728.6 4869.6 Q4731.9 4869.1 4734.6 4869.0 Q4737.5 4868.6 4740.5 4868.5 Q4743.5 4868.2 4746.0 4868.2 Q4748.5 4868.2 4751.0 4868.0 Q4753.5 4867.8 4758.1 4867.5 Q4762.9 4867.4 4765.1 4867.0 Q4767.5 4866.9 4769.8 4866.9 Q4772.0 4866.9 4775.8 4866.6 Q4779.5 4866.4 4782.2 4866.4 Q4785.0 4866.4 4787.5 4866.4 Q4790.0 4866.4 4792.6 4866.4" /><path fill="none" stroke="#000000" stroke-width="12.000000"  stroke-linecap="round" d=" M5126.2 4618.9 Q5126.2 4618.9 5132.8 4628.0 Q5139.2 4637.0 5142.5 4640.4 Q5145.8 4643.5 5147.4 4646.5 Q5149.0 4649.5 5151.5 4653.4 Q5154.1 4657.2 5157.1 4659.9" /><path fill="none" stroke="#000000" stroke-width="12.000000"  stroke-linecap="round" d=" M5111.2 4756.6 Q5111.2 4756.6 5125.5 4757.0 Q5139.9 4757.2 5143.1 4757.2 Q5146.4 4757.2 5151.0 4758.0" /><path fill="none" stroke="#000000" stroke-width="12.000000"  stroke-linecap="round" d=" M5128.9 4886.6 Q5128.9 4886.6 5133.4 4871.4 Q5138.0 4856.0 5140.2 4851.9 Q5142.5 4847.6 5144.5 4844.0 Q5146.4 4840.5 5149.0 4835.5 Q5151.5 4830.8 5153.5 4827.8 Q5155.5 4824.9 5157.8 4821.0" /><path fill="none" stroke="#000000" stroke-width="12.000000"  stroke-linecap="round" d=" M5001.5 5221.2 Q5001.5 5221.2 4988.8 5216.0 Q4976.1 5210.9 4972.9 5210.2 Q4969.6 5209.5 4966.4 5209.5 Q4963.1 5209.5 4959.9 5209.5 Q4956.6 5209.5 4953.4 5209.5 Q4950.1 5209.5 4946.5 5209.5 Q4943.0 5209.5 4939.8 5209.5 Q4936.5 5209.5 4933.2 5210.5 Q4930.0 5211.5 4926.5 5212.5 Q4922.9 5213.5 4918.2 5215.1 Q4913.8 5216.8 4908.2 5219.4 Q4902.6 5222.0 4897.5 5224.9 Q4892.2 5227.8 4887.0 5231.6 Q4881.9 5235.5 4876.4 5239.5 Q4870.9 5243.4 4866.2 5247.0 Q4861.8 5250.5 4858.1 5253.8 Q4854.5 5257.0 4851.6 5261.2 Q4848.8 5265.5 4846.5 5268.8 Q4844.1 5272.0 4842.0 5275.2 Q4839.6 5278.5 4837.6 5283.6 Q4835.8 5288.9 4835.5 5294.5 Q4835.0 5300.0 4835.0 5305.1 Q4835.0 5310.4 4835.8 5315.1 Q4836.4 5320.0 4838.4 5325.2 Q4840.2 5330.5 4842.9 5335.6 Q4845.5 5340.9 4848.0 5345.0 Q4850.6 5349.4 4853.6 5352.5 Q4856.5 5355.9 4860.5 5358.5 Q4864.4 5361.0 4868.9 5363.6 Q4873.5 5366.2 4878.0 5368.5 Q4882.5 5370.8 4886.8 5372.4 Q4891.0 5374.0 4895.5 5375.4 Q4900.0 5376.6 4905.2 5378.0 Q4910.5 5379.2 4915.4 5379.5 Q4920.2 5379.9 4925.5 5380.5 Q4930.6 5381.1 4935.9 5381.1 Q4941.0 5381.1 4946.2 5381.1 Q4951.5 5381.1 4956.6 5380.5 Q4961.9 5379.9 4965.0 5378.9 Q4968.4 5378.0 4973.5 5375.6 Q4978.8 5373.4 4984.2 5370.5 Q4989.8 5367.5 4995.0 5364.2 Q5000.1 5361.0 5005.0 5358.5 Q5010.0 5355.9 5013.9 5352.9 Q5017.8 5350.0 5020.4 5347.4 Q5023.0 5344.8 5025.1 5341.9 Q5027.5 5339.0 5029.0 5335.6 Q5030.8 5332.5 5032.4 5329.1 Q5034.0 5326.0 5035.5 5322.6 Q5037.2 5319.5 5039.1 5315.1 Q5041.1 5311.0 5041.5 5307.8 Q5041.8 5304.5 5042.5 5301.0 Q5043.0 5297.4 5043.4 5294.0 Q5043.8 5290.9 5043.8 5287.2 Q5043.8 5283.6 5043.8 5280.1 Q5043.8 5276.5 5043.8 5273.0 Q5043.8 5269.4 5042.8 5265.5 Q5041.8 5261.5 5040.5 5258.4 Q5039.1 5255.0 5036.9 5251.1 Q5034.6 5247.2 5032.6 5243.8 Q5030.8 5240.1 5028.5 5237.5 Q5026.1 5235.0 5023.9 5232.4 Q5021.6 5229.8 5017.8 5227.5 Q5013.9 5225.1 5010.9 5223.2" /><path fill="none" stroke="#FF0000" stroke-width="3.000000"  stroke-linecap="round" d=" M4525.9 4776.1 Q4525.9 4776.1 4526.0 4782.6 Q4526.0 4789.2 4526.0 4792.2 Q4526.0 4795.2 4526.0 4798.2 Q4525.9 4801.2 4525.6 4803.5 Q4525.5 4805.6 4525.1 4807.8 Q4524.9 4809.8 4524.9 4811.4 Q4524.9 4813.0 4524.8 4814.1 Q4524.6 4815.4 4524.6 4816.5 Q4524.6 4817.5 4524.6 4818.9" /><path fill="none" stroke="#FF0000" stroke-width="3.000000"  stroke-linecap="round" d=" M4526.2 4773.0 Q4526.2 4773.0 4526.9 4770.5 Q4527.5 4767.9 4529.6 4766.5 Q4531.9 4765.1 4533.4 4764.5 Q4534.8 4763.9 4536.4 4763.4 Q4538.0 4762.9 4539.5 4762.8 Q4541.0 4762.6 4542.8 4762.6 Q4544.5 4762.6 4546.0 4762.8 Q4547.5 4762.9 4549.1 4763.9 Q4550.8 4765.0 4551.8 4766.0 Q4552.6 4767.0 4553.1 4768.0 Q4553.6 4769.0 4553.8 4770.6 Q4553.9 4772.1 4553.9 4774.5 Q4553.9 4777.0 4552.0 4779.9 Q4550.1 4782.8 4548.1 4785.4 Q4546.2 4788.0 4544.0 4790.0 Q4541.9 4792.1 4540.1 4793.2 Q4538.5 4794.5 4537.4 4795.2 Q4536.2 4796.0 4535.0 4796.5 Q4533.8 4797.0 4534.8 4796.0 Q4535.9 4795.0 4537.5 4795.0 Q4539.1 4795.0 4541.0 4795.0 Q4542.6 4795.0 4544.4 4795.0 Q4546.0 4795.0 4547.5 4795.5 Q4549.1 4795.9 4550.5 4796.9 Q4552.0 4797.8 4552.9 4798.5 Q4553.6 4799.5 4554.4 4800.5 Q4555.0 4801.5 4555.1 4803.4 Q4555.4 4805.2 4554.5 4807.0 Q4553.6 4809.0 4551.9 4810.2 Q4550.0 4811.5 4548.9 4812.0 Q4547.6 4812.5 4546.6 4812.8 Q4545.5 4813.1 4543.8 4813.5 Q4541.9 4814.0 4540.0 4814.5 Q4538.4 4815.0 4536.5 4815.1 Q4534.8 4815.4 4533.4 4815.6 Q4531.9 4815.9 4530.9 4815.9" /><path fill="none" stroke="#FF0000" stroke-width="3.000000"  stroke-linecap="round" d=" M4567.9 4790.9 Q4567.9 4790.9 4567.5 4794.5 Q4567.1 4798.1 4567.1 4799.8 Q4567.1 4801.2 4567.1 4802.8 Q4567.1 4804.1 4567.1 4805.8 Q4567.1 4807.2 4567.1 4808.8 Q4567.1 4810.2 4567.8 4811.4 Q4568.2 4812.5 4569.6 4813.1 Q4571.1 4813.8 4572.6 4813.6 Q4574.2 4813.5 4575.9 4811.5 Q4577.4 4809.4 4578.9 4806.5 Q4580.2 4803.5 4582.0 4800.5 Q4583.6 4797.4 4585.0 4794.5 Q4586.4 4791.8 4587.0 4790.0 Q4587.8 4788.1 4588.1 4787.0 Q4588.5 4785.6 4588.5 4787.8 Q4588.4 4789.9 4588.2 4791.0 Q4588.1 4792.4 4588.0 4793.6 Q4588.0 4795.0 4588.0 4796.1 Q4588.0 4797.4 4588.0 4798.5 Q4588.0 4799.6 4588.0 4800.6 Q4588.0 4801.6 4588.0 4803.5 Q4588.1 4805.5 4589.0 4806.5 Q4589.6 4807.5 4590.5 4808.2 Q4591.5 4809.0 4592.5 4809.5" /><path fill="none" stroke="#FF0000" stroke-width="3.000000"  stroke-linecap="round" d=" M4596.6 4784.9 Q4596.6 4784.9 4603.0 4784.8 Q4609.1 4784.6 4611.0 4784.4 Q4612.9 4784.0 4614.2 4783.9 Q4615.5 4783.6 4616.6 4783.5 Q4617.6 4783.5 4618.8 4783.4" /><path fill="none" stroke="#FF0000" stroke-width="3.000000"  stroke-linecap="round" d=" M4610.6 4770.0 Q4610.6 4770.0 4610.0 4775.5 Q4609.5 4781.0 4609.0 4784.4 Q4608.5 4787.8 4608.0 4791.1 Q4607.5 4794.6 4607.1 4796.6 Q4606.9 4798.8 4606.8 4800.0 Q4606.6 4801.2 4606.6 4802.9 Q4606.6 4804.4 4607.5 4805.0 Q4608.5 4805.5 4610.1 4805.6 Q4611.9 4805.9 4614.0 4806.0 Q4616.0 4806.0 4617.8 4806.0 Q4619.5 4806.0 4621.0 4806.0 Q4622.6 4805.9 4623.6 4805.5" /><path fill="none" stroke="#FF0000" stroke-width="3.000000"  stroke-linecap="round" d=" M4627.9 4783.9 Q4627.9 4783.9 4631.0 4783.8 Q4634.0 4783.6 4635.1 4783.6 Q4636.1 4783.6 4637.8 4783.5" /><path fill="none" stroke="#FF0000" stroke-width="3.000000"  stroke-linecap="round" d=" M4635.4 4766.5 Q4635.4 4766.5 4635.0 4772.8 Q4634.5 4778.9 4634.0 4782.1 Q4633.5 4785.5 4633.0 4788.2 Q4632.6 4791.0 4632.5 4793.2 Q4632.5 4795.5 4632.5 4797.1 Q4632.5 4798.8 4632.5 4800.5 Q4632.5 4802.1 4632.6 4803.2 Q4632.9 4804.4 4634.0 4805.2 Q4635.1 4806.0 4636.9 4806.6 Q4638.6 4807.2 4640.5 4807.2 Q4642.1 4807.2 4644.0 4807.2 Q4646.0 4807.2 4647.5 4807.2 Q4649.0 4807.2 4650.5 4806.6" /><path fill="none" stroke="#FF0000" stroke-width="3.000000"  stroke-linecap="round" d=" M4681.0 4779.6 Q4681.0 4779.6 4675.6 4780.8 Q4670.2 4781.8 4669.0 4782.6 Q4668.0 4783.6 4667.1 4784.6 Q4666.2 4785.6 4665.8 4787.0 Q4665.2 4788.1 4665.0 4789.5 Q4664.6 4790.6 4664.6 4792.2 Q4664.6 4793.8 4665.0 4795.8 Q4665.5 4797.8 4666.5 4799.5 Q4667.5 4801.2 4668.4 4802.5 Q4669.1 4803.5 4670.1 4804.0 Q4671.0 4804.5 4672.0 4805.0 Q4673.1 4805.5 4674.8 4805.5 Q4676.5 4805.5 4679.2 4805.1 Q4682.0 4804.9 4684.2 4803.1 Q4686.5 4801.5 4687.9 4799.9 Q4689.4 4798.1 4690.5 4795.6 Q4691.9 4793.1 4692.2 4791.6 Q4692.6 4790.0 4692.6 4788.9 Q4692.6 4787.5 4692.2 4786.2 Q4691.9 4784.9 4690.0 4784.4 Q4688.4 4783.9 4686.1 4783.9 Q4684.0 4783.9 4682.5 4783.9 Q4681.0 4783.9 4680.0 4784.0 Q4679.0 4784.0 4677.2 4784.5" /><path fill="none" stroke="#FF0000" stroke-width="3.000000"  stroke-linecap="round" d=" M4697.5 4783.1 Q4697.5 4783.1 4698.0 4789.9 Q4698.5 4796.5 4698.5 4798.6 Q4698.5 4800.9 4698.4 4802.1 Q4698.2 4803.4 4698.1 4804.4 Q4698.0 4805.5 4698.0 4803.0 Q4697.9 4800.5 4697.9 4798.6 Q4697.9 4797.0 4698.1 4794.6 Q4698.5 4792.4 4699.4 4790.2 Q4700.1 4788.1 4701.8 4785.6 Q4703.2 4783.1 4704.8 4781.5 Q4706.1 4779.6 4707.8 4778.0 Q4709.2 4776.4 4711.0 4775.4 Q4712.6 4774.2 4713.9 4773.8 Q4715.0 4773.2 4716.9 4773.1 Q4718.6 4773.0 4719.8 4773.5 Q4721.0 4774.0 4721.5 4775.0 Q4722.0 4776.0 4722.4 4777.0 Q4722.8 4778.2 4723.0 4779.6 Q4723.2 4781.1 4723.5 4782.6 Q4723.6 4784.2 4724.0 4786.0 Q4724.2 4787.8 4724.5 4789.0 Q4724.6 4790.2 4725.0 4791.6 Q4725.2 4793.0 4725.8 4794.9 Q4726.4 4796.6 4726.6 4798.4 Q4727.0 4800.0 4727.2 4801.1" /><path fill="none" stroke="#FF0000" stroke-width="3.000000"  stroke-linecap="round" d=" M4877.9 4782.9 Q4877.9 4782.9 4886.5 4782.2 Q4895.2 4781.6 4900.2 4781.4 Q4905.4 4781.0 4908.6 4780.5 Q4912.0 4779.9 4915.0 4779.5 Q4918.0 4779.2 4921.1 4779.0 Q4924.5 4778.6 4927.5 4778.4 Q4930.5 4778.0 4934.4 4777.5 Q4938.2 4776.9 4941.9 4776.2 Q4945.5 4775.6 4948.4 4775.6 Q4951.4 4775.6 4957.4 4775.4 Q4963.4 4775.0 4968.8 4774.8 Q4974.0 4774.5 4978.2 4773.5 Q4982.5 4772.6 4985.5 4772.6 Q4988.5 4772.6 4991.5 4772.4 Q4994.5 4772.0 4998.2 4771.5 Q5002.1 4770.9 5005.1 4770.5" /><path fill="none" stroke="#FF0000" stroke-width="3.000000"  stroke-linecap="round" d=" M4981.2 4745.1 Q4981.2 4745.1 4991.1 4751.1 Q5001.0 4757.1 5005.8 4759.9 Q5010.5 4762.5 5013.9 4765.1 Q5017.1 4767.9 5019.2 4770.2 Q5021.2 4772.6 5020.6 4775.6 Q5020.1 4778.6 5016.5 4782.2 Q5013.0 4785.9 5009.6 4788.8 Q5006.4 4791.8 5003.4 4795.4 Q5000.4 4799.0 4997.0 4802.0 Q4993.9 4805.0 4991.1 4807.4 Q4988.5 4809.8 4985.8 4811.9 Q4983.0 4813.9 4979.5 4816.5" /><path fill="none" stroke="#FF0000" stroke-width="3.000000"  stroke-linecap="round" d=" M5138.5 4966.2 Q5138.5 4966.2 5124.6 4987.0 Q5111.0 5007.5 5103.1 5018.0 Q5095.4 5028.5 5090.4 5036.5 Q5085.2 5044.5 5080.1 5052.0 Q5075.0 5059.5 5070.2 5065.8 Q5065.5 5072.0 5061.0 5078.0 Q5056.5 5084.0 5053.2 5089.0 Q5050.0 5094.1 5046.0 5099.5 Q5042.2 5105.0 5039.5 5108.5 Q5036.9 5112.0 5034.1 5116.0 Q5031.5 5119.9 5030.0 5122.5" /><path fill="none" stroke="#FF0000" stroke-width="3.000000"  stroke-linecap="round" d=" M5010.0 5089.4 Q5010.0 5089.4 5009.4 5099.0 Q5008.8 5108.5 5008.8 5112.4 Q5008.8 5116.2 5008.8 5120.1 Q5008.8 5124.0 5008.8 5127.6 Q5008.8 5131.2 5009.0 5136.4 Q5009.4 5141.4 5014.5 5141.0 Q5019.5 5140.8 5024.5 5137.1 Q5029.6 5133.6 5037.1 5129.1 Q5044.6 5124.6 5049.6 5121.4 Q5054.8 5118.0 5060.5 5114.1 Q5066.1 5110.4 5070.5 5108.0 Q5075.0 5105.5 5077.8 5103.8 Q5080.5 5102.0 5083.5 5100.5" /><path fill="none" stroke="#FF0000" stroke-width="3.000000"  stroke-linecap="round" d=" M5183.5 4683.9 Q5183.5 4683.9 5182.4 4690.5 Q5181.2 4697.2 5180.2 4701.8 Q5179.2 4706.2 5178.4 4710.8 Q5177.5 4715.2 5176.9 4719.2 Q5176.2 4723.2 5175.8 4726.4 Q5175.2 4729.5 5174.9 4732.4 Q5174.5 4735.1 5174.4 4737.2 Q5174.2 4739.5 5174.2 4741.1 Q5174.2 4743.0 5174.2 4744.1 Q5174.2 4745.4 5174.4 4744.0" /><path fill="none" stroke="#FF0000" stroke-width="3.000000"  stroke-linecap="round" d=" M5185.8 4683.9 Q5185.8 4683.9 5190.0 4688.5 Q5194.1 4693.2 5195.4 4697.2 Q5196.5 4701.2 5197.0 4705.2 Q5197.6 4709.2 5198.1 4713.2 Q5198.6 4717.2 5199.1 4720.5 Q5199.6 4723.8 5200.6 4727.5 Q5201.6 4731.1 5202.8 4734.6 Q5204.0 4738.1 5205.0 4741.5 Q5206.1 4745.0 5206.8 4747.2 Q5207.5 4749.6 5207.8 4750.9" /><path fill="none" stroke="#FF0000" stroke-width="3.000000"  stroke-linecap="round" d=" M5179.5 4723.5 Q5179.5 4723.5 5184.0 4725.0 Q5188.6 4726.5 5190.5 4726.5" /><path fill="none" stroke="#FF0000" stroke-width="3.000000"  stroke-linecap="round" d=" M5222.6 4714.2 Q5222.6 4714.2 5218.2 4718.2 Q5213.9 4722.2 5213.4 4724.5 Q5212.9 4727.0 5212.9 4729.5 Q5212.9 4732.1 5212.9 4734.5 Q5212.9 4736.6 5213.9 4738.5 Q5214.9 4740.5 5216.2 4741.5 Q5217.6 4742.6 5219.0 4743.1 Q5220.4 4743.6 5221.8 4743.8 Q5223.1 4744.0 5225.2 4744.0 Q5227.4 4744.1 5229.2 4743.2" /><path fill="none" stroke="#FF0000" stroke-width="3.000000"  stroke-linecap="round" d=" M5233.9 4716.2 Q5233.9 4716.2 5240.1 4716.1 Q5246.5 4716.0 5248.0 4716.0" /><path fill="none" stroke="#FF0000" stroke-width="3.000000"  stroke-linecap="round" d=" M5246.0 4702.2 Q5246.0 4702.2 5244.6 4711.6 Q5243.4 4721.0 5242.9 4723.5 Q5242.4 4726.0 5242.1 4728.0 Q5242.0 4730.0 5242.0 4731.6 Q5242.0 4733.5 5242.0 4735.0 Q5242.0 4736.6 5242.4 4738.0 Q5242.5 4739.1 5243.6 4740.0 Q5244.9 4741.0 5246.1 4741.5 Q5247.5 4742.0 5249.5 4742.0 Q5251.5 4742.1 5253.0 4741.8 Q5254.5 4741.5 5255.9 4739.0" /><path fill="none" stroke="#FF0000" stroke-width="3.000000"  stroke-linecap="round" d=" M5262.5 4715.2 Q5262.5 4715.2 5262.8 4720.8 Q5263.0 4726.1 5263.4 4728.5 Q5263.8 4731.0 5264.0 4732.5" /><path fill="none" stroke="#FF0000" stroke-width="3.000000"  stroke-linecap="round" d=" M5283.2 4712.2 Q5283.2 4712.2 5279.8 4714.0 Q5276.2 4715.8 5275.8 4717.8 Q5275.2 4719.8 5275.2 4722.4 Q5275.2 4725.0 5275.5 4727.0 Q5276.0 4729.1 5276.5 4730.4 Q5277.2 4731.5 5278.5 4733.0 Q5279.8 4734.5 5281.4 4735.4 Q5283.0 4736.1 5284.5 4736.5 Q5286.0 4736.6 5287.5 4736.8 Q5289.1 4737.0 5290.6 4737.0 Q5292.1 4737.0 5293.6 4735.0 Q5295.1 4733.1 5295.8 4731.1 Q5296.5 4729.1 5296.8 4727.1 Q5297.1 4725.2 5297.1 4723.5 Q5297.1 4722.0 5296.2 4720.8 Q5295.5 4719.5 5294.1 4718.9 Q5293.0 4718.2 5291.5 4717.5 Q5290.1 4717.0 5289.0 4716.5" /><path fill="none" stroke="#FF0000" stroke-width="3.000000"  stroke-linecap="round" d=" M5259.0 4699.0 Q5259.0 4699.0 5261.6 4700.5" /><path fill="none" stroke="#FF0000" stroke-width="3.000000"  stroke-linecap="round" d=" M5304.9 4729.1 Q5304.9 4729.1 5304.1 4733.4 Q5303.5 4737.5 5303.5 4735.4 Q5303.5 4733.1 5303.5 4731.5 Q5303.5 4730.0 5303.5 4727.5 Q5303.5 4725.2 5303.5 4722.8 Q5303.6 4720.2 5304.0 4718.0 Q5304.1 4716.0 5304.5 4714.4 Q5304.9 4712.8 5305.0 4711.5 Q5305.1 4710.2 5305.6 4708.6 Q5306.1 4707.0 5307.5 4706.8 Q5308.9 4706.5 5310.5 4706.6 Q5312.1 4706.8 5313.5 4707.6 Q5314.9 4708.5 5316.0 4710.0 Q5317.1 4711.5 5317.9 4713.8 Q5318.6 4716.0 5319.0 4717.5 Q5319.4 4719.2 5319.5 4720.9 Q5319.6 4722.5 5320.0 4724.0 Q5320.4 4725.5 5320.6 4727.0 Q5320.9 4728.6 5321.1 4730.1 Q5321.4 4731.6 5321.5 4733.0 Q5321.6 4734.5 5321.9 4735.6 Q5322.1 4737.0 5322.4 4739.0" /><path fill="none" stroke="#FF0000" stroke-width="3.000000"  stroke-linecap="round" d=" M5341.0 4672.4 Q5341.0 4672.4 5340.4 4678.4 Q5339.5 4684.4 5339.0 4688.8 Q5338.4 4693.2 5337.5 4698.4 Q5336.9 4703.5 5336.0 4708.5 Q5335.0 4713.5 5334.5 4716.8 Q5334.0 4720.0 5333.5 4722.2 Q5332.9 4724.5 5332.5 4726.0 Q5332.4 4727.6 5332.0 4730.0 Q5331.9 4732.1 5331.9 4733.6 Q5331.9 4735.1 5333.5 4735.5 Q5335.0 4736.0 5337.0 4736.0 Q5338.9 4736.0 5340.6 4736.0 Q5342.5 4736.0 5344.2 4736.0 Q5346.0 4736.0 5347.2 4736.0 Q5348.5 4736.0 5350.2 4736.0" /><path fill="none" stroke="#FF0000" stroke-width="3.000000"  stroke-linecap="round" d=" M5357.8 4711.0 Q5357.8 4711.0 5358.4 4715.2 Q5359.0 4719.5 5359.0 4721.4 Q5359.0 4723.2 5359.1 4725.8 Q5359.2 4728.1 5359.4 4730.1 Q5359.5 4732.1 5359.6 4734.5" /><path fill="none" stroke="#FF0000" stroke-width="3.000000"  stroke-linecap="round" d=" M5352.2 4697.5 Q5352.2 4697.5 5355.2 4698.1 Q5358.2 4698.8 5359.4 4699.4" /><path fill="none" stroke="#FF0000" stroke-width="3.000000"  stroke-linecap="round" d=" M5390.0 4715.5 Q5390.0 4715.5 5386.6 4714.0 Q5383.5 4712.5 5382.0 4712.6 Q5380.5 4712.8 5379.2 4713.5 Q5378.0 4714.2 5377.0 4715.6 Q5376.0 4717.0 5376.9 4718.2 Q5377.8 4719.5 5379.0 4720.5 Q5380.5 4721.5 5381.9 4723.0 Q5383.1 4724.5 5384.1 4725.8 Q5385.1 4727.0 5385.6 4728.1 Q5386.1 4729.5 5386.4 4730.6 Q5386.5 4732.0 5385.9 4733.5 Q5385.1 4735.0 5383.5 4735.5 Q5381.6 4736.0 5380.0 4736.0 Q5378.2 4736.0 5376.4 4736.0 Q5374.5 4736.0 5373.5 4735.1" /><path fill="none" stroke="#FF0000" stroke-width="3.000000"  stroke-linecap="round" d=" M5398.4 4715.5 Q5398.4 4715.5 5402.1 4715.5 Q5406.0 4715.5 5407.2 4715.5 Q5408.5 4715.5 5410.0 4715.5" /><path fill="none" stroke="#FF0000" stroke-width="3.000000"  stroke-linecap="round" d=" M5413.5 4703.6 Q5413.5 4703.6 5411.0 4710.8 Q5408.4 4718.0 5407.9 4720.1 Q5407.4 4722.4 5407.0 4724.5 Q5406.6 4726.8 5406.4 4728.4 Q5406.1 4730.0 5406.0 4732.2 Q5406.0 4734.5 5406.2 4736.1 Q5406.6 4737.6 5407.9 4738.0 Q5409.0 4738.1 5410.5 4738.1 Q5412.0 4738.1 5413.2 4738.0 Q5414.5 4737.6 5415.2 4735.1" /><path fill="none" stroke="#FF0000" stroke-width="3.000000"  stroke-linecap="round" d=" M5409.5 4714.9 Q5409.5 4714.9 5412.6 4714.6 Q5415.6 4714.5 5416.9 4714.6" /><path fill="none" stroke="#FF0000" stroke-width="3.000000"  stroke-linecap="round" d=" M5427.1 4729.6 Q5427.1 4729.6 5430.4 4728.1 Q5433.6 4726.8 5434.2 4725.2 Q5434.9 4723.9 5435.0 4722.1 Q5435.1 4720.5 5435.1 4718.9 Q5435.1 4717.2 5434.1 4716.4 Q5433.1 4715.5 5432.0 4715.5 Q5430.8 4715.2 5429.0 4715.2 Q5427.4 4715.2 5426.0 4715.9 Q5424.6 4716.5 5423.9 4717.8 Q5423.0 4719.0 5422.9 4720.6 Q5422.8 4722.4 5422.8 4723.9 Q5422.8 4725.2 5422.8 4726.8 Q5422.8 4728.1 5423.6 4729.5 Q5424.6 4730.9 5426.1 4732.2 Q5427.5 4733.5 5429.5 4734.5 Q5431.2 4735.5 5432.8 4736.1 Q5434.1 4736.8 5435.6 4736.8" /><path fill="none" stroke="#FF0000" stroke-width="3.000000"  stroke-linecap="round" d=" M5449.5 4713.0 Q5449.5 4713.0 5449.6 4717.4 Q5449.8 4721.6 5449.8 4723.2 Q5449.8 4724.8 5449.6 4726.8 Q5449.5 4728.6 5449.4 4730.6 Q5449.2 4732.5 5449.1 4734.0 Q5449.0 4735.5 5448.9 4736.9 Q5448.8 4738.1 5448.8 4739.9 Q5448.8 4741.5 5448.8 4739.8 Q5448.8 4738.0 5448.8 4736.0 Q5448.8 4734.0 5448.8 4732.0 Q5448.8 4730.0 5449.1 4727.9 Q5449.5 4725.8 5450.1 4724.0 Q5450.8 4722.1 5451.4 4720.2 Q5452.0 4718.5 5452.8 4717.0 Q5453.6 4715.5 5454.9 4714.4 Q5456.0 4713.0 5457.4 4713.0 Q5458.5 4712.9 5459.8 4713.4 Q5461.0 4713.9 5461.0 4715.1 Q5461.1 4716.5 5461.5 4717.9 Q5461.6 4719.1 5461.9 4721.1 Q5462.0 4723.0 5462.1 4725.1 Q5462.5 4727.2 5462.6 4729.1 Q5463.0 4731.1 5463.0 4733.0 Q5463.1 4735.0 5463.1 4736.4" /><path fill="none" stroke="#FF0000" stroke-width="3.000000"  stroke-linecap="round" d=" M5473.6 4725.2 Q5473.6 4725.2 5477.2 4724.8 Q5481.0 4724.4 5481.5 4722.5 Q5481.9 4720.9 5481.9 4719.4 Q5481.9 4717.8 5480.9 4716.9 Q5479.8 4716.0 5478.5 4715.9 Q5477.2 4715.8 5475.9 4715.8 Q5474.4 4715.8 5472.9 4716.8 Q5471.5 4717.8 5471.0 4719.0 Q5470.5 4720.1 5470.2 4721.8 Q5470.0 4723.4 5470.0 4725.0 Q5470.0 4726.5 5470.0 4728.1 Q5470.0 4730.0 5470.0 4731.8 Q5470.2 4733.5 5470.6 4734.8 Q5471.1 4736.0 5472.5 4737.0 Q5473.6 4738.0 5475.4 4738.5 Q5477.0 4739.0 5478.2 4739.0 Q5479.5 4739.1 5480.6 4739.1" /><path fill="none" stroke="#FF0000" stroke-width="3.000000"  stroke-linecap="round" d=" M5494.5 4714.4 Q5494.5 4714.4 5494.6 4717.8 Q5494.9 4721.1 5494.9 4723.4 Q5494.9 4725.5 5494.9 4727.8 Q5494.9 4730.0 5494.9 4732.0 Q5494.9 4734.0 5494.9 4735.5 Q5494.9 4737.0 5494.9 4738.5 Q5494.9 4740.1 5494.4 4738.5 Q5493.9 4736.8 5493.5 4735.1 Q5493.4 4733.5 5493.4 4731.6 Q5493.4 4729.6 5493.4 4727.9 Q5493.4 4726.0 5493.9 4724.4 Q5494.4 4722.5 5495.2 4721.0 Q5496.2 4719.5 5497.5 4718.5 Q5498.8 4717.8 5499.8 4717.1 Q5500.9 4716.5 5502.4 4716.5" /><path fill="none" stroke="#FF0000" stroke-width="3.000000"  stroke-linecap="round" d=" M4862.9 5278.8 Q4862.9 5278.8 4861.0 5283.9 Q4859.4 5289.0 4858.8 5290.9 Q4858.2 5292.9 4858.0 5295.0 Q4858.0 5297.0 4857.0 5300.2 Q4856.1 5303.4 4855.5 5305.5 Q4854.8 5307.5 4854.0 5309.8" /><path fill="none" stroke="#FF0000" stroke-width="3.000000"  stroke-linecap="round" d=" M4864.5 5274.5 Q4864.5 5274.5 4866.1 5283.1 Q4867.8 5291.8 4868.5 5295.6 Q4869.1 5299.5 4869.6 5302.5 Q4870.2 5305.5 4870.8 5307.5 Q4871.2 5309.8 4871.6 5311.5 Q4872.0 5313.2 4872.6 5315.9" /><path fill="none" stroke="#FF0000" stroke-width="3.000000"  stroke-linecap="round" d=" M4859.0 5297.4 Q4859.0 5297.4 4863.0 5298.0" /><path fill="none" stroke="#FF0000" stroke-width="3.000000"  stroke-linecap="round" d=" M4890.5 5288.2 Q4890.5 5288.2 4885.9 5289.9 Q4881.1 5291.5 4879.9 5293.5 Q4878.6 5295.6 4878.1 5298.0 Q4877.5 5300.2 4877.5 5302.0 Q4877.5 5303.8 4878.2 5305.6 Q4879.0 5307.5 4880.8 5308.1 Q4882.5 5308.6 4884.2 5308.6 Q4886.0 5308.6 4888.1 5308.2 Q4890.2 5308.0 4892.0 5307.2" /><path fill="none" stroke="#FF0000" stroke-width="3.000000"  stroke-linecap="round" d=" M4897.6 5290.0 Q4897.6 5290.0 4902.0 5290.0 Q4906.5 5290.0 4908.4 5290.0 Q4910.2 5290.0 4912.2 5290.0" /><path fill="none" stroke="#FF0000" stroke-width="3.000000"  stroke-linecap="round" d=" M4908.9 5275.2 Q4908.9 5275.2 4907.9 5281.5 Q4906.8 5287.5 4906.8 5290.9 Q4906.8 5294.2 4906.8 5297.4 Q4906.8 5300.5 4906.8 5303.5 Q4906.8 5306.5 4907.5 5308.5 Q4908.1 5310.5 4909.8 5311.2 Q4911.4 5312.1 4914.0 5310.2" /><path fill="none" stroke="#FF0000" stroke-width="3.000000"  stroke-linecap="round" d=" M4926.8 5290.0 Q4926.8 5290.0 4926.8 5295.2 Q4926.8 5300.5 4926.8 5303.4 Q4926.8 5306.1 4926.8 5308.5 Q4926.8 5310.8 4926.8 5312.5" /><path fill="none" stroke="#FF0000" stroke-width="3.000000"  stroke-linecap="round" d=" M4945.8 5292.5 Q4945.8 5292.5 4942.0 5296.9 Q4938.0 5301.2 4938.0 5303.4 Q4938.0 5305.5 4938.0 5307.2 Q4938.0 5309.0 4940.0 5310.5 Q4942.0 5311.9 4943.6 5312.0 Q4945.5 5312.1 4947.4 5312.1 Q4949.2 5312.1 4950.9 5311.0 Q4952.5 5309.8 4952.9 5307.8 Q4953.1 5305.9 4953.1 5303.5 Q4953.1 5301.2 4953.1 5299.1 Q4953.1 5297.0 4952.0 5295.5 Q4950.6 5293.9 4948.8 5293.1 Q4946.9 5292.5 4944.8 5292.1 Q4942.6 5291.8 4940.4 5291.8" /><path fill="none" stroke="#FFB2D8" stroke-width="3.000000"  stroke-linecap="round" d=" M4924.6 5275.6 Q4924.6 5275.6 4927.4 5279.6" /><path fill="none" stroke="#FF0000" stroke-width="3.000000"  stroke-linecap="round" d=" M4960.5 5293.1 Q4960.5 5293.1 4960.8 5298.1 Q4960.9 5303.0 4960.9 5305.1 Q4960.9 5307.2 4960.9 5309.0 Q4960.9 5310.8 4960.9 5308.2 Q4960.9 5305.9 4961.2 5303.1 Q4961.5 5300.5 4962.5 5298.5 Q4963.4 5296.4 4965.0 5295.0 Q4966.5 5293.5 4968.5 5293.5 Q4970.4 5293.5 4971.0 5295.5 Q4971.5 5297.4 4972.1 5299.9 Q4972.9 5302.4 4973.4 5305.0 Q4973.9 5307.5 4974.2 5310.0 Q4974.5 5312.5 4975.0 5314.6" /><path fill="none" stroke="#FFB2D8" stroke-width="3.000000"  stroke-linecap="round" d=" M4970.8 5274.5 Q4970.8 5274.5 4976.0 5274.0 Q4981.2 5273.5 4983.0 5273.5 Q4984.8 5273.5 4987.5 5273.5" /><path fill="none" stroke="#FF0000" stroke-width="3.000000"  stroke-linecap="round" d=" M4977.0 5278.0 Q4977.0 5278.0 4977.5 5285.2 Q4977.8 5292.5 4978.0 5295.6 Q4978.1 5298.9 4978.2 5301.2 Q4978.5 5303.8 4979.0 5306.1 Q4979.5 5308.6 4979.6 5310.5 Q4979.9 5312.5 4981.0 5315.6 Q4982.0 5318.9 4983.0 5320.5 Q4984.0 5322.4 4986.1 5322.4 Q4988.2 5322.4 4990.0 5322.1" /><path fill="none" stroke="#FF0000" stroke-width="3.000000"  stroke-linecap="round" d=" M4979.1 5298.1 Q4979.1 5298.1 4984.2 5297.5" /><path fill="none" stroke="#FF0000" stroke-width="3.000000"  stroke-linecap="round" d=" M4996.8 5291.8 Q4996.8 5291.8 4998.1 5298.0 Q4999.5 5304.0 5000.5 5307.0 Q5001.4 5310.0 5002.4 5312.4 Q5003.5 5314.6 5004.6 5316.8 Q5005.9 5318.9 5007.1 5317.5 Q5008.4 5316.0 5008.5 5314.0 Q5008.6 5311.9 5008.9 5309.0 Q5009.0 5306.1 5009.5 5303.8 Q5010.0 5301.2 5010.2 5299.1 Q5010.5 5297.0 5010.6 5295.2" /><path fill="none" stroke="#FF0000" stroke-width="3.000000"  stroke-linecap="round" d=" M5016.5 5305.9 Q5016.5 5305.9 5021.0 5303.1 Q5025.5 5300.5 5025.8 5298.2 Q5026.0 5296.0 5025.4 5294.0 Q5024.9 5292.1 5022.5 5292.0 Q5020.2 5291.8 5018.4 5292.0 Q5016.5 5292.1 5015.8 5294.2 Q5015.0 5296.4 5014.5 5299.0 Q5014.0 5301.6 5014.0 5304.0 Q5014.0 5306.5 5014.6 5308.5 Q5015.4 5310.5 5017.9 5312.1 Q5020.2 5314.0 5023.0 5315.6 Q5026.0 5317.5 5028.8 5318.5 Q5031.5 5319.5 5033.5 5319.9" /><path fill="none" stroke="#FF0000" stroke-width="3.000000"  stroke-linecap="round" d=" M5034.0 5295.0 Q5034.0 5295.0 5035.2 5301.0 Q5036.5 5306.9 5037.1 5308.9 Q5037.9 5310.8 5038.2 5312.5 Q5038.5 5314.2 5038.8 5316.0 Q5039.0 5317.8 5039.2 5320.0 Q5039.6 5322.4 5039.6 5319.9 Q5039.6 5317.5 5039.6 5315.6 Q5039.6 5314.0 5039.6 5311.5 Q5039.6 5309.0 5039.6 5306.8 Q5039.6 5304.5 5040.4 5302.4 Q5041.0 5300.2 5041.5 5298.1 Q5042.0 5296.0 5042.8 5294.2 Q5043.5 5292.5 5045.0 5290.4 Q5046.6 5288.2 5048.4 5287.4 Q5050.1 5286.5 5052.0 5286.5 Q5053.6 5286.5 5054.4 5288.8 Q5055.0 5291.0 5055.6 5294.0 Q5056.1 5297.0 5056.5 5300.0 Q5056.9 5303.0 5057.1 5305.4 Q5057.5 5307.5 5057.9 5309.8" /><path fill="none" stroke="#FF0000" stroke-width="3.000000"  stroke-linecap="round" d=" M5063.1 5294.2 Q5063.1 5294.2 5068.5 5293.9 Q5073.8 5293.5 5075.6 5293.5" /><path fill="none" stroke="#FF0000" stroke-width="3.000000"  stroke-linecap="round" d=" M5070.1 5266.5 Q5070.1 5266.5 5069.4 5275.6 Q5068.5 5284.8 5068.5 5288.6 Q5068.5 5292.5 5068.5 5296.4 Q5068.5 5300.2 5068.5 5302.9 Q5068.5 5305.5 5068.5 5307.2 Q5068.5 5309.0 5068.8 5311.1 Q5069.1 5313.2 5070.5 5315.5 Q5072.0 5317.8 5073.5 5318.6 Q5075.1 5319.5 5077.4 5319.9 Q5079.6 5320.2 5082.0 5320.0 Q5084.2 5319.9 5086.0 5318.9" /></svg>