<?xml version="1.0" encoding="UTF-8"?><svg viewBox="4607 4523 716 851" xmlns="http://www.w3.org/2000/svg" version="1.1"><ITMZ contentOffset="{12298.5, 12587}" zoomScale="2.708827" /><path fill="none" stroke="#000000" stroke-width="3.000000"  stroke-linecap="round" d=" M4771.0 4640.6 Q4771.0 4640.6 4770.8 4652.4 Q4770.5 4664.1 4771.2 4670.4 Q4772.0 4676.6 4772.2 4683.1 Q4772.5 4689.6 4772.8 4696.6 Q4773.0 4703.6 4773.2 4710.6 Q4773.5 4717.6 4773.5 4724.6 Q4773.5 4731.6 4774.0 4738.4 Q4774.5 4745.1 4775.0 4752.4 Q4775.5 4759.6 4776.0 4767.4 Q4776.5 4775.1 4777.2 4784.4 Q4778.0 4793.6 4778.5 4802.9 Q4779.0 4812.1 4779.8 4820.9 Q4780.5 4829.6 4781.0 4838.1 Q4781.5 4846.6 4782.2 4855.4 Q4783.0 4864.1 4783.2 4871.6 Q4783.5 4879.1 4784.0 4888.6 Q4784.5 4898.1 4784.8 4907.6 Q4785.0 4917.1 4785.2 4926.6 Q4785.5 4936.1 4785.5 4945.1 Q4785.5 4954.1 4785.8 4963.4 Q4786.0 4972.6 4786.5 4981.4 Q4787.0 4990.1 4787.5 4997.4 Q4788.0 5004.6 4788.5 5013.4 Q4789.0 5022.1 4789.5 5029.1 Q4790.0 5036.1 4790.2 5044.4 Q4790.5 5052.6 4790.8 5060.6 Q4791.0 5068.6 4791.2 5075.6 Q4791.5 5082.6 4791.8 5089.6 Q4792.0 5096.6 4792.2 5101.6 Q4792.5 5106.6 4792.5 5112.6 Q4792.5 5118.6 4792.5 5123.9 Q4792.5 5129.1 4792.5 5134.1 Q4792.5 5139.1 4792.8 5143.9 Q4793.0 5148.6 4793.0 5152.1 Q4793.0 5155.6 4793.2 5159.1 Q4793.5 5162.6 4793.8 5166.1 Q4794.0 5169.6 4794.0 5172.1 Q4794.0 5174.6 4794.0 5177.1" /><path fill="none" stroke="#000000" stroke-width="3.000000"  stroke-linecap="round" d=" M4781.5 4639.6 Q4781.5 4639.6 4789.8 4639.6 Q4798.0 4639.6 4803.2 4639.6 Q4808.5 4639.6 4813.8 4639.6 Q4819.0 4639.6 4825.8 4639.6 Q4832.5 4639.6 4839.2 4639.6 Q4846.0 4639.6 4854.8 4639.4 Q4863.5 4639.1 4872.5 4639.1 Q4881.5 4639.1 4891.2 4638.9 Q4901.0 4638.6 4911.5 4638.6 Q4922.0 4638.6 4933.0 4638.6 Q4944.0 4638.6 4956.0 4638.4 Q4968.0 4638.1 4980.2 4637.9 Q4992.5 4637.6 5005.2 4637.6 Q5018.0 4637.6 5030.8 4637.6 Q5043.5 4637.6 5057.8 4637.6 Q5072.0 4637.6 5084.8 4637.6 Q5097.5 4637.6 5109.0 4637.6 Q5120.5 4637.6 5133.0 4637.6 Q5145.5 4637.6 5157.5 4637.6 Q5169.5 4637.6 5181.0 4637.6 Q5192.5 4637.6 5203.0 4637.6 Q5213.5 4637.6 5223.2 4637.6 Q5233.0 4637.6 5242.2 4637.6 Q5251.5 4637.6 5258.0 4637.6 Q5264.5 4637.6 5271.5 4637.6 Q5278.5 4637.6 5282.8 4637.6 Q5287.0 4637.6 5290.5 4637.6 Q5294.0 4637.6 5297.2 4637.6 Q5300.5 4637.6 5304.2 4637.6 Q5308.0 4637.6 5309.5 4640.1 Q5311.0 4642.6 5311.0 4645.1 Q5311.0 4647.6 5311.0 4651.6 Q5311.0 4655.6 5310.8 4660.4 Q5310.5 4665.1 5310.5 4671.9 Q5310.5 4678.6 5310.5 4685.6 Q5310.5 4692.6 5310.5 4701.9 Q5310.5 4711.1 5310.5 4720.6 Q5310.5 4730.1 5310.5 4740.1 Q5310.5 4750.1 5310.5 4761.1 Q5310.5 4772.1 5310.0 4783.6 Q5309.5 4795.1 5309.0 4806.9 Q5308.5 4818.6 5308.2 4830.4 Q5308.0 4842.1 5307.8 4853.6 Q5307.5 4865.1 5307.0 4876.9 Q5306.5 4888.6 5305.8 4902.6 Q5305.0 4916.6 5304.0 4930.1 Q5303.0 4943.6 5301.5 4957.1 Q5300.0 4970.6 5299.0 4983.9 Q5298.0 4997.1 5297.0 5008.1 Q5296.0 5019.1 5295.8 5030.1 Q5295.5 5041.1 5295.2 5050.9 Q5295.0 5060.6 5294.8 5070.4 Q5294.5 5080.1 5294.2 5090.1 Q5294.0 5100.1 5294.0 5110.4 Q5294.0 5120.6 5294.0 5128.1 Q5294.0 5135.6 5294.0 5142.9 Q5294.0 5150.1 5294.0 5155.1 Q5294.0 5160.1 5294.0 5164.4 Q5294.0 5168.6 5294.0 5172.6 Q5294.0 5176.6 5294.0 5179.4 Q5294.0 5182.1 5294.0 5184.6 Q5294.0 5187.1 5294.0 5190.4 Q5294.0 5193.6 5294.0 5196.4 Q5294.0 5199.1 5294.0 5201.6" /><path fill="none" stroke="#000000" stroke-width="3.000000"  stroke-linecap="round" d=" M4791.0 5191.6 Q4791.0 5191.6 4801.5 5193.9 Q4812.0 5196.1 4816.8 5196.6 Q4821.5 5197.1 4828.8 5197.9 Q4836.0 5198.6 4842.5 5198.9 Q4849.0 5199.1 4856.5 5199.4 Q4864.0 5199.6 4872.0 5199.6 Q4880.0 5199.6 4888.0 5199.6 Q4896.0 5199.6 4905.5 5199.6 Q4915.0 5199.6 4924.5 5199.4 Q4934.0 5199.1 4943.5 5198.6 Q4953.0 5198.1 4963.5 5197.4 Q4974.0 5196.6 4985.0 5195.6 Q4996.0 5194.6 5007.5 5193.4 Q5019.0 5192.1 5030.2 5190.9 Q5041.5 5189.6 5053.2 5188.4 Q5065.0 5187.1 5076.0 5186.4 Q5087.0 5185.6 5098.0 5185.1 Q5109.0 5184.6 5119.8 5184.6 Q5130.5 5184.6 5141.0 5184.6 Q5151.5 5184.6 5161.8 5184.6 Q5172.0 5184.6 5180.8 5184.6 Q5189.5 5184.6 5198.0 5184.6 Q5206.5 5184.6 5213.8 5184.6 Q5221.0 5184.6 5227.8 5184.6 Q5234.5 5184.6 5239.8 5184.9 Q5245.0 5185.1 5250.0 5185.4 Q5255.0 5185.6 5258.5 5185.9 Q5262.0 5186.1 5265.0 5186.4 Q5268.0 5186.6 5272.5 5187.1 Q5277.0 5187.6 5280.0 5188.1 Q5283.0 5188.6 5286.0 5188.9 Q5289.0 5189.1 5291.5 5189.1 Q5294.0 5189.1 5297.5 5188.4" /><path fill="none" stroke="#000000" stroke-width="3.000000"  stroke-linecap="round" d=" M4776.5 4692.1 Q4776.5 4692.1 4783.8 4691.9 Q4791.0 4691.6 4796.5 4691.4 Q4802.0 4691.1 4805.0 4691.1 Q4808.0 4691.1 4810.8 4690.9 Q4813.5 4690.6 4817.2 4690.6 Q4821.0 4690.6 4825.0 4690.4 Q4829.0 4690.1 4832.8 4690.1 Q4836.5 4690.1 4840.8 4689.9 Q4845.0 4689.6 4850.0 4689.1 Q4855.0 4688.6 4859.5 4688.6 Q4864.0 4688.6 4868.8 4688.6 Q4873.5 4688.6 4879.2 4688.6 Q4885.0 4688.6 4890.5 4688.6 Q4896.0 4688.6 4902.8 4688.6 Q4909.5 4688.6 4915.0 4688.4 Q4920.5 4688.1 4927.2 4688.1 Q4934.0 4688.1 4940.5 4687.9 Q4947.0 4687.6 4953.8 4687.6 Q4960.5 4687.6 4967.2 4687.4 Q4974.0 4687.1 4981.0 4687.1 Q4988.0 4687.1 4994.5 4687.1 Q5001.0 4687.1 5007.8 4687.1 Q5014.5 4687.1 5021.0 4687.1 Q5027.5 4687.1 5034.2 4687.1 Q5041.0 4687.1 5047.5 4687.1 Q5054.0 4687.1 5060.8 4687.1 Q5067.5 4687.1 5074.2 4687.1 Q5081.0 4687.1 5087.8 4687.1 Q5094.5 4687.1 5100.8 4686.9 Q5107.0 4686.6 5113.8 4686.4 Q5120.5 4686.1 5127.0 4686.1 Q5133.5 4686.1 5140.2 4685.9 Q5147.0 4685.6 5152.2 4685.4 Q5157.5 4685.1 5164.8 4684.6 Q5172.0 4684.1 5177.0 4683.9 Q5182.0 4683.6 5187.5 4683.6 Q5193.0 4683.6 5198.0 4683.6 Q5203.0 4683.6 5207.0 4683.6 Q5211.0 4683.6 5215.2 4683.6 Q5219.5 4683.6 5224.0 4683.6 Q5228.5 4683.6 5232.0 4683.6 Q5235.5 4683.6 5238.8 4683.6 Q5242.0 4683.6 5245.0 4683.6 Q5248.0 4683.6 5250.8 4683.6 Q5253.5 4683.6 5256.0 4683.6 Q5258.5 4683.6 5262.5 4683.6 Q5266.5 4683.6 5269.8 4683.6 Q5273.0 4683.6 5275.8 4683.6 Q5278.5 4683.6 5281.2 4683.6 Q5284.0 4683.6 5286.8 4683.6 Q5289.5 4683.6 5292.2 4683.6" /><path fill="none" stroke="#000000" stroke-width="3.000000"  stroke-linecap="round" d=" M4783.0 4771.1 Q4783.0 4771.1 4790.5 4770.4 Q4798.0 4769.6 4801.5 4769.6 Q4805.0 4769.6 4808.2 4769.6 Q4811.5 4769.6 4815.2 4769.4 Q4819.0 4769.1 4824.0 4768.9 Q4829.0 4768.6 4833.8 4768.6 Q4838.5 4768.6 4843.0 4768.1 Q4847.5 4767.6 4853.0 4767.4 Q4858.5 4767.1 4863.5 4766.9 Q4868.5 4766.6 4874.0 4766.4 Q4879.5 4766.1 4886.0 4765.6 Q4892.5 4765.1 4898.5 4764.9 Q4904.5 4764.6 4911.0 4764.4 Q4917.5 4764.1 4924.0 4763.9 Q4930.5 4763.6 4937.5 4763.1 Q4944.5 4762.6 4951.2 4762.1 Q4958.0 4761.6 4965.5 4761.1 Q4973.0 4760.6 4980.2 4760.1 Q4987.5 4759.6 4994.5 4759.4 Q5001.5 4759.1 5009.2 4758.9 Q5017.0 4758.6 5024.2 4758.4 Q5031.5 4758.1 5039.2 4757.9 Q5047.0 4757.6 5054.8 4757.4 Q5062.5 4757.1 5070.2 4756.9 Q5078.0 4756.6 5086.2 4756.6 Q5094.5 4756.6 5102.2 4756.4 Q5110.0 4756.1 5118.0 4755.6 Q5126.0 4755.1 5133.5 4754.9 Q5141.0 4754.6 5148.8 4754.4 Q5156.5 4754.1 5164.0 4754.1 Q5171.5 4754.1 5178.2 4754.1 Q5185.0 4754.1 5192.0 4754.1 Q5199.0 4754.1 5204.2 4754.1 Q5209.5 4754.1 5215.2 4754.1 Q5221.0 4754.1 5226.2 4754.1 Q5231.5 4754.1 5235.8 4754.1 Q5240.0 4754.1 5245.0 4754.1 Q5250.0 4754.1 5253.5 4754.1 Q5257.0 4754.1 5260.5 4754.1 Q5264.0 4754.1 5267.2 4754.1 Q5270.5 4754.1 5273.8 4754.1 Q5277.0 4754.1 5279.8 4754.1 Q5282.5 4754.1 5286.8 4754.1 Q5291.0 4754.1 5293.8 4754.1 Q5296.5 4754.1 5299.2 4754.1 Q5302.0 4754.1 5306.8 4754.1" /><path fill="none" stroke="#000000" stroke-width="3.000000"  stroke-linecap="round" d=" M4795.5 4857.1 Q4795.5 4857.1 4807.2 4856.1 Q4819.0 4855.1 4824.2 4854.9 Q4829.5 4854.6 4835.8 4854.4 Q4842.0 4854.1 4848.5 4853.6 Q4855.0 4853.1 4862.0 4852.4 Q4869.0 4851.6 4878.2 4851.4 Q4887.5 4851.1 4895.0 4850.9 Q4902.5 4850.6 4912.5 4850.4 Q4922.5 4850.1 4932.0 4850.1 Q4941.5 4850.1 4951.8 4850.1 Q4962.0 4850.1 4972.2 4850.1 Q4982.5 4850.1 4993.0 4850.1 Q5003.5 4850.1 5014.0 4850.1 Q5024.5 4850.1 5035.2 4850.1 Q5046.0 4850.1 5056.5 4850.4 Q5067.0 4850.6 5077.0 4850.9 Q5087.0 4851.1 5096.8 4851.4 Q5106.5 4851.6 5116.0 4852.1 Q5125.5 4852.6 5134.5 4853.1 Q5143.5 4853.6 5152.0 4854.1 Q5160.5 4854.6 5168.8 4855.4 Q5177.0 4856.1 5184.2 4856.6 Q5191.5 4857.1 5199.0 4857.9 Q5206.5 4858.6 5214.0 4858.9 Q5221.5 4859.1 5228.5 4859.6 Q5235.5 4860.1 5242.5 4860.4 Q5249.5 4860.6 5255.0 4860.6 Q5260.5 4860.6 5266.2 4860.6 Q5272.0 4860.6 5277.0 4860.6 Q5282.0 4860.6 5285.8 4860.6 Q5289.5 4860.6 5292.5 4860.6 Q5295.5 4860.6 5298.5 4860.6 Q5301.5 4860.6 5305.2 4860.9 Q5309.0 4861.1 5312.0 4861.1" /><path fill="none" stroke="#000000" stroke-width="3.000000"  stroke-linecap="round" d=" M4796.5 4935.6 Q4796.5 4935.6 4806.8 4934.9 Q4817.0 4934.1 4823.5 4934.1 Q4830.0 4934.1 4836.8 4934.1 Q4843.5 4934.1 4850.5 4934.1 Q4857.5 4934.1 4864.8 4934.1 Q4872.0 4934.1 4880.0 4934.1 Q4888.0 4934.1 4897.5 4934.1 Q4907.0 4934.1 4915.8 4934.1 Q4924.5 4934.1 4934.2 4934.1 Q4944.0 4934.1 4953.8 4934.1 Q4963.5 4934.1 4973.0 4934.1 Q4982.5 4934.1 4992.5 4934.1 Q5002.5 4934.1 5013.2 4934.1 Q5024.0 4934.1 5034.8 4934.1 Q5045.5 4934.1 5056.2 4933.6 Q5067.0 4933.1 5077.2 4932.9 Q5087.5 4932.6 5097.8 4932.1 Q5108.0 4931.6 5118.0 4931.6 Q5128.0 4931.6 5138.0 4931.4 Q5148.0 4931.1 5155.8 4930.9 Q5163.5 4930.6 5172.2 4930.6 Q5181.0 4930.6 5189.2 4930.4 Q5197.5 4930.1 5204.5 4929.9 Q5211.5 4929.6 5218.5 4929.4 Q5225.5 4929.1 5230.5 4929.1 Q5235.5 4929.1 5241.5 4928.9 Q5247.5 4928.6 5252.2 4928.6 Q5257.0 4928.6 5260.8 4928.6 Q5264.5 4928.6 5268.2 4928.6 Q5272.0 4928.6 5275.5 4928.6 Q5279.0 4928.6 5281.8 4928.6 Q5284.5 4928.6 5288.8 4928.4 Q5293.0 4928.1 5295.8 4927.9" /><path fill="none" stroke="#000000" stroke-width="3.000000"  stroke-linecap="round" d=" M4809.0 5009.1 Q4809.0 5009.1 4823.2 5009.4 Q4837.5 5009.6 4844.0 5009.9 Q4850.5 5010.1 4858.2 5010.4 Q4866.0 5010.6 4875.2 5010.6 Q4884.5 5010.6 4893.2 5010.6 Q4902.0 5010.6 4911.8 5010.6 Q4921.5 5010.6 4931.8 5010.6 Q4942.0 5010.6 4953.5 5010.1 Q4965.0 5009.6 4976.8 5009.4 Q4988.5 5009.1 5000.8 5008.9 Q5013.0 5008.6 5025.2 5008.4 Q5037.5 5008.1 5049.8 5007.6 Q5062.0 5007.1 5074.2 5006.9 Q5086.5 5006.6 5098.0 5006.1 Q5109.5 5005.6 5120.2 5005.4 Q5131.0 5005.1 5141.8 5005.1 Q5152.5 5005.1 5162.2 5005.1 Q5172.0 5005.1 5181.2 5005.1 Q5190.5 5005.1 5199.2 5004.9 Q5208.0 5004.6 5215.5 5004.6 Q5223.0 5004.6 5230.2 5004.4 Q5237.5 5004.1 5245.0 5003.9 Q5252.5 5003.6 5257.2 5003.4 Q5262.0 5003.1 5267.0 5002.9 Q5272.0 5002.6 5275.5 5002.6 Q5279.0 5002.6 5281.5 5002.6 Q5284.0 5002.6 5287.8 5002.6 Q5291.5 5002.6 5294.2 5002.6 Q5297.0 5002.6 5300.0 5002.6 Q5303.0 5002.6 5305.5 5002.6" /><path fill="none" stroke="#000000" stroke-width="3.000000"  stroke-linecap="round" d=" M4821.0 5082.1 Q4821.0 5082.1 4833.2 5081.9 Q4845.5 5081.6 4853.5 5081.6 Q4861.5 5081.6 4871.0 5081.6 Q4880.5 5081.6 4889.2 5081.4 Q4898.0 5081.1 4908.0 5080.9 Q4918.0 5080.6 4928.5 5080.4 Q4939.0 5080.1 4950.2 5079.6 Q4961.5 5079.1 4973.0 5078.4 Q4984.5 5077.6 4996.0 5076.4 Q5007.5 5075.1 5019.5 5074.1 Q5031.5 5073.1 5043.5 5072.1 Q5055.5 5071.1 5067.5 5070.1 Q5079.5 5069.1 5091.0 5068.4 Q5102.5 5067.6 5113.5 5066.6 Q5124.5 5065.6 5135.2 5065.4 Q5146.0 5065.1 5155.8 5064.9 Q5165.5 5064.6 5175.0 5064.1 Q5184.5 5063.6 5193.5 5063.4 Q5202.5 5063.1 5209.8 5062.9 Q5217.0 5062.6 5224.8 5062.1 Q5232.5 5061.6 5239.0 5061.4 Q5245.5 5061.1 5250.8 5061.1 Q5256.0 5061.1 5260.0 5060.9 Q5264.0 5060.6 5267.5 5060.6 Q5271.0 5060.6 5273.8 5060.6 Q5276.5 5060.6 5280.2 5060.6 Q5284.0 5060.6 5286.5 5060.6" /><path fill="none" stroke="#000000" stroke-width="3.000000"  stroke-linecap="round" d=" M4817.0 5147.6 Q4817.0 5147.6 4830.5 5147.9 Q4844.0 5148.1 4851.0 5148.1 Q4858.0 5148.1 4865.2 5147.9 Q4872.5 5147.6 4882.2 5146.9 Q4892.0 5146.1 4901.5 5145.9 Q4911.0 5145.6 4921.0 5145.1 Q4931.0 5144.6 4941.2 5143.9 Q4951.5 5143.1 4962.8 5142.4 Q4974.0 5141.6 4986.0 5140.6 Q4998.0 5139.6 5010.0 5138.9 Q5022.0 5138.1 5034.0 5137.1 Q5046.0 5136.1 5059.8 5135.4 Q5073.5 5134.6 5085.8 5133.4 Q5098.0 5132.1 5108.2 5131.1 Q5118.5 5130.1 5129.2 5129.4 Q5140.0 5128.6 5150.0 5127.9 Q5160.0 5127.1 5169.8 5127.1 Q5179.5 5127.1 5188.8 5127.1 Q5198.0 5127.1 5205.2 5127.1 Q5212.5 5127.1 5220.2 5127.1 Q5228.0 5127.1 5234.8 5126.9 Q5241.5 5126.6 5246.8 5126.6 Q5252.0 5126.6 5255.8 5126.6 Q5259.5 5126.6 5262.2 5126.4 Q5265.0 5126.1 5267.5 5126.1 Q5270.0 5126.1 5273.5 5126.1 Q5277.0 5126.1 5279.8 5126.1 Q5282.5 5126.1 5285.5 5125.6 Q5288.5 5125.1 5291.0 5124.4 Q5293.5 5123.6 5296.0 5123.1" /><path fill="none" stroke="#000000" stroke-width="3.000000"  stroke-linecap="round" d=" M4875.5 4653.6 Q4875.5 4653.6 4876.0 4664.1 Q4876.5 4674.6 4877.2 4680.4 Q4878.0 4686.1 4878.5 4692.1 Q4879.0 4698.1 4879.8 4705.6 Q4880.5 4713.1 4880.8 4721.1 Q4881.0 4729.1 4881.5 4738.4 Q4882.0 4747.6 4882.5 4757.1 Q4883.0 4766.6 4883.0 4776.9 Q4883.0 4787.1 4883.2 4798.4 Q4883.5 4809.6 4884.0 4820.9 Q4884.5 4832.1 4885.0 4843.4 Q4885.5 4854.6 4886.0 4865.9 Q4886.5 4877.1 4887.2 4888.6 Q4888.0 4900.1 4889.0 4911.9 Q4890.0 4923.6 4891.2 4935.1 Q4892.5 4946.6 4893.8 4958.4 Q4895.0 4970.1 4896.2 4981.4 Q4897.5 4992.6 4898.8 5004.4 Q4900.0 5016.1 4901.2 5027.4 Q4902.5 5038.6 4903.5 5049.6 Q4904.5 5060.6 4905.5 5070.6 Q4906.5 5080.6 4907.2 5089.9 Q4908.0 5099.1 4908.8 5106.4 Q4909.5 5113.6 4910.2 5121.1 Q4911.0 5128.6 4911.5 5135.6 Q4912.0 5142.6 4913.0 5149.4 Q4914.0 5156.1 4914.2 5162.9 Q4914.5 5169.6 4915.5 5175.9 Q4916.5 5182.1 4916.8 5186.4 Q4917.0 5190.6 4917.2 5194.6 Q4917.5 5198.6 4917.8 5201.4 Q4918.0 5204.1 4918.8 5207.9 Q4919.5 5211.6 4920.2 5214.1" /><path fill="none" stroke="#000000" stroke-width="3.000000"  stroke-linecap="round" d=" M4988.5 4656.6 Q4988.5 4656.6 4987.5 4666.9 Q4986.5 4677.1 4987.2 4683.1 Q4988.0 4689.1 4988.8 4696.1 Q4989.5 4703.1 4990.0 4710.9 Q4990.5 4718.6 4991.2 4727.9 Q4992.0 4737.1 4992.8 4745.6 Q4993.5 4754.1 4994.2 4763.4 Q4995.0 4772.6 4996.0 4782.9 Q4997.0 4793.1 4998.2 4805.1 Q4999.5 4817.1 5000.2 4830.9 Q5001.0 4844.6 5001.5 4857.6 Q5002.0 4870.6 5002.5 4883.1 Q5003.0 4895.6 5003.2 4907.4 Q5003.5 4919.1 5003.8 4931.4 Q5004.0 4943.6 5004.2 4956.6 Q5004.5 4969.6 5004.5 4982.1 Q5004.5 4994.6 5004.8 5006.9 Q5005.0 5019.1 5005.5 5030.1 Q5006.0 5041.1 5006.5 5051.9 Q5007.0 5062.6 5007.2 5072.9 Q5007.5 5083.1 5008.0 5093.4 Q5008.5 5103.6 5008.8 5112.6 Q5009.0 5121.6 5009.2 5128.6 Q5009.5 5135.6 5009.5 5141.1 Q5009.5 5146.6 5009.5 5151.6 Q5009.5 5156.6 5009.5 5160.4 Q5009.5 5164.1 5009.5 5166.9 Q5009.5 5169.6 5009.5 5172.1 Q5009.5 5174.6 5009.8 5178.4 Q5010.0 5182.1 5010.5 5184.9" /><path fill="none" stroke="#000000" stroke-width="3.000000"  stroke-linecap="round" d=" M5105.5 4657.1 Q5105.5 4657.1 5105.5 4672.4 Q5105.5 4687.6 5105.5 4697.6 Q5105.5 4707.6 5105.5 4717.6 Q5105.5 4727.6 5105.5 4737.9 Q5105.5 4748.1 5105.5 4759.1 Q5105.5 4770.1 5105.5 4782.1 Q5105.5 4794.1 5105.5 4806.6 Q5105.5 4819.1 5105.0 4833.4 Q5104.5 4847.6 5104.2 4861.1 Q5104.0 4874.6 5104.0 4888.6 Q5104.0 4902.6 5104.0 4916.4 Q5104.0 4930.1 5103.8 4941.9 Q5103.5 4953.6 5103.2 4965.6 Q5103.0 4977.6 5102.8 4989.9 Q5102.5 5002.1 5102.5 5013.4 Q5102.5 5024.6 5102.2 5035.6 Q5102.0 5046.6 5102.0 5056.4 Q5102.0 5066.1 5102.0 5074.1 Q5102.0 5082.1 5102.0 5090.1 Q5102.0 5098.1 5102.0 5103.9 Q5102.0 5109.6 5102.0 5115.4 Q5102.0 5121.1 5102.0 5125.4 Q5102.0 5129.6 5102.0 5133.9 Q5102.0 5138.1 5102.0 5142.4 Q5102.0 5146.6 5102.0 5149.9 Q5102.0 5153.1 5102.0 5156.6 Q5102.0 5160.1 5102.0 5162.6 Q5102.0 5165.1 5102.0 5168.1 Q5102.0 5171.1 5102.0 5173.9 Q5102.0 5176.6 5102.0 5179.1 Q5102.0 5181.6 5102.0 5185.1 Q5102.0 5188.6 5102.5 5191.4" /><path fill="none" stroke="#000000" stroke-width="3.000000"  stroke-linecap="round" d=" M5212.0 4655.1 Q5212.0 4655.1 5212.5 4667.1 Q5213.0 4679.1 5213.2 4686.4 Q5213.5 4693.6 5213.8 4703.6 Q5214.0 4713.6 5214.2 4723.9 Q5214.5 4734.1 5215.0 4745.4 Q5215.5 4756.6 5215.8 4768.9 Q5216.0 4781.1 5216.0 4795.6 Q5216.0 4810.1 5216.0 4823.4 Q5216.0 4836.6 5216.0 4849.9 Q5216.0 4863.1 5216.0 4876.9 Q5216.0 4890.6 5215.8 4904.9 Q5215.5 4919.1 5215.2 4932.6 Q5215.0 4946.1 5214.8 4959.4 Q5214.5 4972.6 5214.2 4984.1 Q5214.0 4995.6 5213.8 5008.1 Q5213.5 5020.6 5213.5 5032.1 Q5213.5 5043.6 5213.5 5054.6 Q5213.5 5065.6 5213.5 5075.9 Q5213.5 5086.1 5213.5 5095.4 Q5213.5 5104.6 5213.5 5111.9 Q5213.5 5119.1 5213.5 5124.9 Q5213.5 5130.6 5213.5 5134.6 Q5213.5 5138.6 5213.5 5142.4 Q5213.5 5146.1 5213.5 5149.1 Q5213.5 5152.1 5213.5 5154.6 Q5213.5 5157.1 5213.5 5161.1 Q5213.5 5165.1 5213.5 5167.9 Q5213.5 5170.6 5213.8 5173.4 Q5214.0 5176.1 5214.0 5178.6 Q5214.0 5181.1 5214.0 5183.6" /><path fill="none" stroke="#000000" stroke-width="3.000000"  stroke-linecap="round" d=" M4811.0 5330.6 Q4811.0 5330.6 4811.5 5340.4 Q4812.0 5350.1 4812.2 5353.6" /><path fill="none" stroke="#000000" stroke-width="3.000000"  stroke-linecap="round" d=" M4808.0 5317.6 Q4808.0 5317.6 4818.8 5319.1 Q4829.5 5320.6 4834.2 5320.4 Q4839.0 5320.1 4844.2 5319.1 Q4849.5 5318.1 4855.5 5317.1 Q4861.5 5316.1 4865.0 5315.6 Q4868.5 5315.1 4871.8 5314.4 Q4875.0 5313.6 4877.8 5312.9 Q4880.5 5312.1 4884.0 5311.4 Q4887.5 5310.6 4889.5 5313.1 Q4891.5 5315.6 4891.8 5318.9 Q4892.0 5322.1 4892.5 5326.1 Q4893.0 5330.1 4894.0 5334.1 Q4895.0 5338.1 4895.5 5341.4 Q4896.0 5344.6 4896.8 5347.4" /><path fill="none" stroke="#000000" stroke-width="3.000000"  stroke-linecap="round" d=" M4819.5 5356.1 Q4819.5 5356.1 4829.2 5355.4 Q4839.0 5354.6 4842.8 5354.4 Q4846.5 5354.1 4852.0 5353.9 Q4857.5 5353.6 4862.0 5353.4 Q4866.5 5353.1 4871.0 5353.1 Q4875.5 5353.1 4879.8 5353.1 Q4884.0 5353.1 4887.0 5353.1 Q4890.0 5353.1 4892.5 5353.1 Q4895.0 5353.1 4897.5 5353.1" /><path fill="none" stroke="#000000" stroke-width="3.000000"  stroke-linecap="round" d=" M4877.2 5333.4 Q4877.2 5333.4 4888.5 5332.4 Q4899.8 5331.4 4906.2 5331.4 Q4912.8 5331.4 4920.2 5330.9 Q4927.8 5330.4 4935.0 5329.6 Q4942.2 5328.9 4949.2 5328.1 Q4956.2 5327.4 4963.0 5326.6 Q4969.8 5325.9 4975.8 5325.4 Q4981.8 5324.9 4985.8 5324.4 Q4989.8 5323.9 4992.8 5323.6 Q4995.8 5323.4 4998.2 5323.4" /><path fill="none" stroke="#000000" stroke-width="3.000000"  stroke-linecap="round" d=" M4882.8 5325.4 Q4882.8 5325.4 4892.2 5319.1 Q4901.8 5312.9 4903.8 5311.1 Q4905.8 5309.4 4907.8 5307.6" /><path fill="none" stroke="#000000" stroke-width="3.000000"  stroke-linecap="round" d=" M4881.2 5338.4 Q4881.2 5338.4 4892.8 5348.9 Q4904.2 5359.4 4906.8 5360.6 Q4909.2 5361.9 4912.2 5362.4" /><path fill="none" stroke="#000000" stroke-width="3.000000"  stroke-linecap="round" d=" M5069.2 5297.9 Q5069.2 5297.9 5053.5 5300.9 Q5037.8 5303.9 5032.0 5306.4 Q5026.2 5308.9 5023.5 5310.4 Q5020.8 5311.9 5019.5 5315.1 Q5018.2 5318.4 5020.8 5319.6 Q5023.2 5320.9 5028.8 5322.1 Q5034.2 5323.4 5038.0 5324.6 Q5041.8 5325.9 5045.8 5327.1 Q5049.8 5328.4 5052.2 5330.6 Q5054.8 5332.9 5054.5 5335.4 Q5054.2 5337.9 5048.8 5338.1 Q5043.2 5338.4 5040.0 5338.1 Q5036.8 5337.9 5034.0 5335.1" /><path fill="none" stroke="#000000" stroke-width="3.000000"  stroke-linecap="round" d=" M5069.2 5271.4 Q5069.2 5271.4 5070.2 5282.4 Q5071.2 5293.4 5072.0 5299.1 Q5072.8 5304.9 5073.0 5310.1 Q5073.2 5315.4 5073.2 5320.4 Q5073.2 5325.4 5073.2 5328.4 Q5073.2 5331.4 5072.2 5334.6 Q5071.2 5337.9 5070.5 5335.4 Q5069.8 5332.9 5070.0 5329.1 Q5070.2 5325.4 5072.2 5321.6 Q5074.2 5317.9 5076.5 5315.1 Q5078.8 5312.4 5082.0 5311.4 Q5085.2 5310.4 5088.0 5311.9 Q5090.8 5313.4 5091.0 5315.9 Q5091.2 5318.4 5092.2 5322.1 Q5093.2 5325.9 5097.0 5327.4" /><path fill="none" stroke="#000000" stroke-width="3.000000"  stroke-linecap="round" d=" M5104.2 5317.9 Q5104.2 5317.9 5114.8 5321.4 Q5125.2 5324.9 5126.5 5322.4 Q5127.8 5319.9 5127.8 5315.4 Q5127.8 5310.9 5122.5 5309.4 Q5117.2 5307.9 5113.5 5307.9 Q5109.8 5307.9 5107.2 5309.1 Q5104.8 5310.4 5102.2 5313.4 Q5099.8 5316.4 5099.2 5319.1 Q5098.8 5321.9 5098.8 5325.1 Q5098.8 5328.4 5101.5 5331.9 Q5104.2 5335.4 5108.8 5336.9 Q5113.2 5338.4 5117.8 5339.1 Q5122.2 5339.9 5126.8 5339.9 Q5131.2 5339.9 5135.2 5338.9 Q5139.2 5337.9 5141.5 5336.6" /><path fill="none" stroke="#000000" stroke-width="3.000000"  stroke-linecap="round" d=" M5137.2 5326.9 Q5137.2 5326.9 5146.2 5327.1 Q5155.2 5327.4 5158.2 5325.4 Q5161.2 5323.4 5162.8 5321.4 Q5164.2 5319.4 5164.2 5316.4 Q5164.2 5313.4 5161.8 5313.4 Q5159.2 5313.4 5155.5 5313.4 Q5151.8 5313.4 5148.2 5313.9 Q5144.8 5314.4 5142.8 5316.4 Q5140.8 5318.4 5139.2 5322.1 Q5137.8 5325.9 5143.0 5330.4 Q5148.2 5334.9 5155.0 5335.6 Q5161.8 5336.4 5169.0 5336.4 Q5176.2 5336.4 5184.2 5335.9" /><path fill="none" stroke="#000000" stroke-width="3.000000"  stroke-linecap="round" d=" M5180.8 5308.9 Q5180.8 5308.9 5192.0 5309.6" /><path fill="none" stroke="#000000" stroke-width="3.000000"  stroke-linecap="round" d=" M5198.2 5289.9 Q5198.2 5289.9 5195.8 5302.4 Q5193.2 5314.9 5193.2 5319.4 Q5193.2 5323.9 5193.2 5327.1 Q5193.2 5330.4 5195.0 5334.1 Q5196.8 5337.9 5200.5 5337.9 Q5204.2 5337.9 5209.8 5336.6 Q5215.2 5335.4 5220.2 5332.6" /><path fill="none" stroke="#000000" stroke-width="3.000000"  stroke-linecap="round" d=" M5179.2 5306.4 Q5179.2 5306.4 5189.0 5306.4 Q5198.8 5306.4 5205.5 5306.4" /><path fill="none" stroke="#000000" stroke-width="3.000000"  stroke-linecap="round" d=" M4690.0 4659.6 Q4690.0 4659.6 4690.6 4663.8 Q4691.4 4667.8 4691.8 4670.1 Q4692.0 4672.6 4692.0 4675.1 Q4692.0 4677.8 4692.0 4679.8 Q4692.0 4681.6 4692.0 4683.2 Q4692.0 4684.8 4691.9 4686.0 Q4691.6 4687.1 4691.0 4688.1 Q4690.4 4689.1 4689.6 4688.4 Q4689.0 4687.5 4688.8 4684.6 Q4688.6 4681.6 4688.6 4677.4 Q4688.6 4673.0 4688.6 4668.6 Q4688.6 4664.2 4689.5 4660.5 Q4690.4 4656.8 4691.1 4654.9 Q4692.0 4653.1 4693.0 4651.9 Q4693.9 4650.8 4695.0 4650.2 Q4696.0 4649.6 4697.0 4649.5 Q4698.0 4649.2 4699.5 4649.4 Q4701.0 4649.5 4702.2 4650.5 Q4703.6 4651.4 4704.8 4653.1 Q4706.0 4654.9 4706.5 4656.6 Q4707.1 4658.2 4707.4 4660.1 Q4707.5 4662.0 4707.5 4664.0 Q4707.5 4665.9 4707.5 4667.6 Q4707.4 4669.2 4706.4 4670.5 Q4705.4 4671.8 4704.4 4672.4 Q4703.5 4673.0 4702.0 4673.5 Q4700.8 4674.0 4701.5 4674.9 Q4702.1 4675.6 4703.4 4676.5 Q4704.5 4677.4 4705.4 4678.1 Q4706.1 4679.0 4707.0 4680.0 Q4707.9 4680.9 4708.9 4682.1" /><path fill="none" stroke="#000000" stroke-width="3.000000"  stroke-linecap="round" d=" M4721.0 4669.9 Q4721.0 4669.9 4719.8 4673.8 Q4718.4 4677.8 4718.5 4678.9 Q4718.6 4680.1 4719.4 4681.0 Q4720.0 4681.9 4721.1 4682.5 Q4722.4 4683.0 4723.5 4683.1 Q4724.6 4683.1 4725.6 4683.1 Q4726.8 4683.1 4728.0 4681.2 Q4729.1 4679.4 4729.2 4677.8 Q4729.5 4676.1 4729.5 4674.8 Q4729.5 4673.4 4728.5 4672.6 Q4727.8 4672.0 4726.0 4671.0 Q4724.2 4670.1 4723.0 4670.1" /><path fill="none" stroke="#000000" stroke-width="3.000000"  stroke-linecap="round" d=" M4734.0 4665.6 Q4734.0 4665.6 4734.5 4669.9 Q4735.0 4674.0 4736.0 4675.9 Q4737.0 4677.8 4737.8 4678.9 Q4738.4 4680.1 4738.9 4681.2 Q4739.4 4682.6 4740.4 4681.8 Q4741.2 4681.1 4741.9 4678.6 Q4742.5 4676.1 4743.1 4673.6 Q4743.8 4671.1 4744.2 4669.2 Q4744.8 4667.4 4745.5 4666.1 Q4746.5 4664.9 4747.5 4667.0 Q4748.5 4669.1 4749.0 4670.6 Q4749.4 4672.4 4749.9 4673.6 Q4750.4 4674.9 4751.0 4675.9 Q4751.6 4677.0 4753.5 4677.2 Q4755.5 4677.6 4757.4 4675.4 Q4759.0 4673.1 4760.0 4669.6 Q4760.8 4666.1 4760.9 4663.2" /><path fill="none" stroke="#000000" stroke-width="3.000000"  stroke-linecap="round" d=" M4690.0 4713.5 Q4690.0 4713.5 4692.0 4721.1 Q4693.9 4728.9 4694.4 4733.1 Q4694.8 4737.6 4694.9 4741.6 Q4695.0 4745.9 4695.0 4748.8 Q4695.0 4751.6 4695.0 4753.8 Q4695.0 4755.9 4694.5 4757.1 Q4694.0 4758.4 4693.5 4756.6 Q4693.0 4754.8 4693.0 4749.8 Q4693.0 4744.9 4693.0 4738.1 Q4693.0 4731.4 4693.0 4725.1 Q4693.0 4719.1 4693.8 4715.1 Q4694.5 4711.1 4695.5 4708.8 Q4696.4 4706.4 4697.5 4705.1 Q4698.5 4703.9 4699.8 4703.6 Q4701.0 4703.2 4703.1 4703.6 Q4705.4 4704.1 4707.2 4706.0 Q4709.2 4707.9 4710.9 4710.6 Q4712.4 4713.2 4713.6 4716.1 Q4714.9 4719.1 4715.2 4721.9 Q4715.6 4724.6 4715.6 4727.6 Q4715.6 4730.5 4715.0 4733.1 Q4714.5 4735.6 4712.9 4737.4 Q4711.4 4739.0 4709.9 4739.9 Q4708.5 4740.6 4707.1 4741.1 Q4706.0 4741.6 4704.5 4741.6 Q4703.0 4741.6 4704.5 4742.1 Q4706.1 4742.4 4707.1 4743.1 Q4708.2 4744.0 4709.0 4744.9 Q4709.6 4745.6 4710.6 4746.9 Q4711.5 4748.1 4712.4 4749.0" /><path fill="none" stroke="#000000" stroke-width="3.000000"  stroke-linecap="round" d=" M4721.5 4734.6 Q4721.5 4734.6 4722.1 4740.4 Q4722.8 4746.1 4723.2 4747.5 Q4723.8 4748.8 4725.0 4749.8 Q4726.0 4750.9 4727.8 4750.4 Q4729.5 4749.8 4729.9 4747.8 Q4730.2 4745.6 4730.2 4743.1 Q4730.2 4740.5 4730.2 4738.2 Q4730.2 4736.1 4729.0 4735.0 Q4728.0 4733.9 4726.8 4733.9 Q4725.5 4733.9 4725.1 4735.6" /><path fill="none" stroke="#000000" stroke-width="3.000000"  stroke-linecap="round" d=" M4739.5 4733.6 Q4739.5 4733.6 4741.0 4738.5 Q4742.5 4743.4 4743.0 4745.1 Q4743.5 4746.6 4744.0 4747.8 Q4744.4 4748.8 4744.9 4749.8 Q4745.4 4750.9 4746.5 4748.5 Q4747.5 4746.1 4748.0 4744.0 Q4748.5 4742.0 4749.0 4740.6 Q4749.4 4739.2 4750.0 4737.9 Q4750.8 4736.6 4752.0 4736.8 Q4753.2 4737.0 4754.2 4738.8 Q4755.1 4740.6 4755.9 4742.1 Q4756.6 4743.6 4757.5 4745.0 Q4758.5 4746.2 4759.6 4747.0 Q4760.8 4747.8 4763.0 4744.1 Q4765.1 4740.5 4765.8 4734.5 Q4766.4 4728.5 4766.4 4724.2" /><path fill="none" stroke="#000000" stroke-width="3.000000"  stroke-linecap="round" d=" M4698.6 4803.8 Q4698.6 4803.8 4697.8 4816.1 Q4696.8 4828.4 4696.8 4834.1 Q4696.8 4839.8 4696.5 4843.1 Q4696.4 4846.6 4695.8 4848.2 Q4695.1 4850.0 4694.5 4850.9 Q4693.9 4851.8 4693.9 4846.2 Q4693.9 4840.8 4694.0 4834.1 Q4694.0 4827.2 4694.6 4820.2 Q4695.1 4813.1 4696.0 4807.1 Q4696.8 4800.9 4697.4 4797.6 Q4697.9 4794.2 4698.6 4792.1 Q4699.5 4789.9 4700.6 4788.8 Q4701.8 4787.6 4703.5 4787.4 Q4705.1 4787.1 4707.1 4787.5 Q4709.2 4787.9 4711.5 4789.9 Q4713.9 4792.0 4715.5 4794.8 Q4717.1 4797.6 4718.1 4800.9 Q4719.2 4804.2 4719.5 4807.2 Q4719.9 4810.2 4719.9 4813.4 Q4719.9 4816.5 4719.0 4819.6 Q4718.0 4822.6 4716.1 4824.6 Q4714.2 4826.5 4712.5 4827.5 Q4710.8 4828.6 4709.4 4829.1 Q4708.0 4829.6 4707.0 4829.6 Q4706.0 4829.6 4707.9 4830.5 Q4709.6 4831.5 4711.0 4832.8 Q4712.4 4834.1 4713.8 4835.6 Q4715.0 4837.1 4716.1 4838.1 Q4717.1 4839.4 4718.0 4840.6 Q4718.9 4841.9 4719.5 4843.1 Q4720.2 4844.2 4721.1 4843.0 Q4722.1 4841.6 4722.9 4839.6 Q4723.5 4837.6 4724.6 4835.1 Q4725.6 4832.6 4726.5 4830.2 Q4727.4 4827.9 4727.6 4826.8 Q4728.0 4825.6 4727.8 4826.8 Q4727.5 4827.9 4727.4 4830.2 Q4727.1 4832.6 4727.1 4834.6 Q4727.1 4836.6 4727.1 4838.6 Q4727.1 4840.6 4727.8 4842.0 Q4728.4 4843.2 4730.6 4843.6 Q4733.0 4844.1 4734.2 4842.6 Q4735.6 4841.1 4736.2 4838.6 Q4736.9 4836.1 4736.9 4833.5 Q4736.9 4830.8 4736.8 4829.5 Q4736.6 4828.1 4735.4 4827.1 Q4734.0 4826.2 4731.5 4826.9 Q4729.0 4827.5 4728.5 4829.2 Q4728.1 4831.1 4729.6 4832.0" /><path fill="none" stroke="#000000" stroke-width="3.000000"  stroke-linecap="round" d=" M4738.1 4831.1 Q4738.1 4831.1 4740.5 4830.1 Q4742.6 4829.4 4743.2 4831.4 Q4743.8 4833.2 4744.4 4835.6 Q4745.0 4837.9 4745.4 4839.8 Q4745.9 4841.6 4746.2 4842.8 Q4746.6 4843.9 4747.2 4844.9 Q4747.9 4845.8 4749.2 4842.6 Q4750.5 4839.6 4751.1 4836.1 Q4751.6 4832.9 4752.0 4830.4 Q4752.5 4827.9 4752.8 4826.5 Q4753.0 4825.0 4754.2 4826.2 Q4755.4 4827.5 4756.1 4829.2 Q4757.0 4831.1 4758.0 4832.1 Q4759.0 4833.1 4760.4 4834.0 Q4761.5 4834.8 4763.8 4834.8 Q4766.0 4834.8 4769.0 4832.1 Q4772.1 4829.6 4774.0 4823.9" /><path fill="none" stroke="#000000" stroke-width="3.000000"  stroke-linecap="round" d=" M4693.2 4882.0 Q4693.2 4882.0 4692.6 4887.9 Q4692.1 4893.9 4692.1 4896.6 Q4692.1 4899.6 4692.1 4902.6 Q4692.1 4905.6 4692.1 4908.6 Q4692.1 4911.6 4692.0 4914.1 Q4692.0 4916.6 4691.5 4917.9 Q4690.9 4919.1 4690.2 4919.9 Q4689.6 4920.8 4688.8 4918.1 Q4688.0 4915.6 4688.0 4911.1 Q4688.0 4906.8 4688.0 4900.5 Q4688.0 4894.2 4688.2 4888.2 Q4688.5 4882.1 4689.8 4877.5 Q4690.9 4872.6 4692.0 4869.6 Q4693.2 4866.6 4694.6 4864.6 Q4696.1 4862.6 4698.1 4861.8 Q4700.1 4860.8 4701.9 4860.8 Q4703.5 4860.8 4706.0 4861.2 Q4708.5 4861.6 4710.1 4863.1 Q4711.9 4864.6 4713.2 4866.8 Q4714.5 4868.9 4715.6 4871.4 Q4716.8 4874.0 4717.0 4876.6 Q4717.4 4879.2 4717.4 4882.0 Q4717.4 4884.8 4717.0 4887.6 Q4716.5 4890.6 4714.9 4893.2 Q4713.1 4896.0 4711.0 4898.0 Q4708.9 4900.0 4706.8 4901.1 Q4704.6 4902.1 4703.0 4902.6 Q4701.5 4903.1 4700.5 4903.4 Q4699.4 4903.6 4701.2 4904.9 Q4703.1 4906.1 4704.9 4907.4 Q4706.5 4908.6 4708.1 4909.9 Q4709.8 4911.0 4710.9 4912.1 Q4712.0 4913.1 4712.9 4914.0 Q4713.8 4914.8 4715.0 4915.8" /><path fill="none" stroke="#000000" stroke-width="3.000000"  stroke-linecap="round" d=" M4731.4 4894.1 Q4731.4 4894.1 4729.0 4899.4 Q4726.9 4904.6 4726.5 4906.4 Q4726.2 4908.1 4726.2 4909.4 Q4726.2 4910.8 4726.2 4912.1 Q4726.2 4913.4 4728.2 4914.6 Q4730.2 4916.1 4732.0 4916.1 Q4733.9 4916.1 4736.0 4915.6 Q4738.0 4915.2 4739.5 4913.6 Q4741.0 4912.1 4741.6 4910.4 Q4742.4 4908.6 4742.4 4906.8 Q4742.4 4904.9 4742.4 4903.8 Q4742.4 4902.8 4741.5 4901.9 Q4740.6 4901.1 4738.6 4900.6 Q4736.6 4900.1 4735.0 4900.1" /><path fill="none" stroke="#000000" stroke-width="3.000000"  stroke-linecap="round" d=" M4754.0 4894.9 Q4754.0 4894.9 4754.2 4900.2 Q4754.6 4905.6 4754.9 4907.1 Q4755.0 4908.5 4755.4 4909.6 Q4755.6 4910.8 4756.2 4912.1 Q4756.8 4913.4 4758.1 4912.0 Q4759.5 4910.6 4760.1 4908.4 Q4760.8 4906.1 4761.1 4904.5 Q4761.6 4902.8 4761.9 4901.6 Q4762.0 4900.6 4763.0 4901.6 Q4764.0 4902.6 4764.4 4903.9 Q4764.8 4905.2 4765.4 4906.4 Q4765.9 4907.4 4767.2 4908.5 Q4768.5 4909.5 4770.4 4909.6 Q4772.1 4909.8 4773.6 4907.1 Q4775.1 4904.5 4775.2 4901.8 Q4775.4 4899.1 4775.4 4895.4 Q4775.4 4891.5 4775.0 4889.1" /><path fill="none" stroke="#000000" stroke-width="3.000000"  stroke-linecap="round" d=" M4730.0 4981.2" /><path fill="none" stroke="#000000" stroke-width="3.000000"  stroke-linecap="round" d=" M4723.2 4976.0 Q4723.2 4976.0 4726.1 4977.0 Q4729.0 4977.9 4730.0 4978.6 Q4730.9 4979.4 4731.8 4980.2" /><path fill="none" stroke="#000000" stroke-width="3.000000"  stroke-linecap="round" d=" M4731.4 5052.5 Q4731.4 5052.5 4734.0 5053.5 Q4736.6 5054.6 4737.6 5055.1" /><path fill="none" stroke="#000000" stroke-width="3.000000"  stroke-linecap="round" d=" M4734.0 5121.5 Q4734.0 5121.5 4737.4 5122.8 Q4740.6 5124.1 4741.5 5124.6" /><path fill="none" stroke="#000000" stroke-width="3.000000"  stroke-linecap="round" d=" M4809.2 4710.8 Q4809.2 4710.8 4806.6 4710.6 Q4804.0 4710.6 4802.0 4711.4 Q4799.9 4712.2 4798.4 4713.5 Q4796.9 4714.8 4795.9 4715.8 Q4794.8 4716.9 4793.9 4718.1 Q4792.9 4719.2 4792.0 4720.9 Q4791.4 4722.4 4790.8 4723.8 Q4790.1 4725.1 4789.9 4726.5 Q4789.6 4727.6 4789.5 4729.1 Q4789.2 4730.4 4789.1 4731.6 Q4789.0 4732.9 4789.0 4734.0 Q4789.0 4735.1 4789.1 4736.6 Q4789.2 4738.0 4790.5 4739.1 Q4791.8 4740.1 4793.1 4740.6 Q4794.5 4741.1 4796.4 4741.2 Q4798.1 4741.4 4799.6 4741.4 Q4801.0 4741.4 4802.0 4741.4" /><path fill="none" stroke="#000000" stroke-width="3.000000"  stroke-linecap="round" d=" M4813.9 4730.0 Q4813.9 4730.0 4817.5 4730.4 Q4821.2 4730.8 4821.9 4729.9 Q4822.4 4729.1 4823.0 4727.5 Q4823.5 4726.0 4823.0 4725.1 Q4822.4 4724.1 4821.1 4724.1 Q4820.0 4724.1 4818.5 4724.4 Q4817.2 4724.6 4816.0 4725.6 Q4815.0 4726.6 4814.0 4727.6 Q4812.9 4728.9 4812.1 4729.8 Q4811.5 4730.8 4811.0 4732.4 Q4810.5 4734.0 4810.6 4735.6 Q4810.8 4737.2 4811.9 4738.1 Q4812.9 4739.0 4814.2 4739.6 Q4815.8 4740.2 4817.0 4740.4 Q4818.1 4740.5 4819.1 4740.5" /><path fill="none" stroke="#000000" stroke-width="3.000000"  stroke-linecap="round" d=" M4830.4 4707.1 Q4830.4 4707.1 4830.0 4713.8 Q4829.5 4720.5 4828.9 4723.1 Q4828.2 4725.6 4828.0 4727.1 Q4827.8 4728.9 4827.6 4730.0 Q4827.5 4731.1 4827.5 4732.4 Q4827.5 4733.6 4827.6 4734.8 Q4827.8 4735.9 4828.5 4737.2 Q4829.5 4738.6 4830.5 4739.1 Q4831.8 4739.5 4833.2 4738.1" /><path fill="none" stroke="#000000" stroke-width="3.000000"  stroke-linecap="round" d=" M4843.8 4707.0 Q4843.8 4707.0 4843.2 4712.6 Q4842.8 4718.1 4842.8 4720.8 Q4842.8 4723.2 4842.4 4725.1 Q4842.0 4727.0 4842.0 4728.6 Q4841.9 4730.1 4841.8 4731.6 Q4841.6 4733.2 4841.6 4734.4 Q4841.6 4735.5 4841.8 4736.5 Q4841.9 4737.4 4842.8 4738.5 Q4843.8 4739.5 4844.8 4739.6" /><path fill="none" stroke="#000000" stroke-width="3.000000"  stroke-linecap="round" d=" M4818.8 4655.2 Q4818.8 4655.2 4814.0 4653.6 Q4809.5 4651.9 4807.5 4652.6 Q4805.5 4653.4 4803.5 4654.5 Q4801.6 4655.5 4800.0 4656.8 Q4798.4 4658.1 4797.2 4659.6 Q4796.0 4661.1 4795.4 4663.0 Q4794.5 4664.8 4794.2 4667.0 Q4794.0 4669.1 4793.9 4671.1 Q4793.9 4673.1 4793.9 4675.0 Q4793.9 4676.8 4793.9 4678.0 Q4794.0 4679.1 4794.5 4680.2 Q4795.0 4681.4 4795.9 4682.4 Q4796.9 4683.2 4797.9 4683.9 Q4799.0 4684.5 4800.2 4684.9 Q4801.6 4685.4 4802.8 4685.6 Q4804.0 4685.8 4805.2 4685.9 Q4806.5 4686.0 4808.0 4686.0 Q4809.5 4686.0 4810.4 4685.9 Q4811.4 4685.8 4812.5 4684.8" /><path fill="none" stroke="#000000" stroke-width="3.000000"  stroke-linecap="round" d=" M4822.0 4673.4 Q4822.0 4673.4 4826.9 4672.9 Q4831.8 4672.5 4832.5 4671.5 Q4833.5 4670.6 4833.8 4669.6 Q4834.0 4668.6 4834.0 4667.6 Q4834.0 4666.6 4833.0 4665.9 Q4832.0 4665.0 4830.6 4665.0 Q4829.5 4665.0 4828.4 4665.6 Q4827.4 4666.1 4826.6 4667.5 Q4826.0 4668.8 4825.4 4671.0 Q4824.6 4673.1 4824.5 4674.9 Q4824.2 4676.6 4824.1 4678.0 Q4824.1 4679.2 4824.1 4681.0 Q4824.1 4682.8 4825.8 4683.6 Q4827.4 4684.6 4828.5 4684.8 Q4829.9 4685.0 4831.2 4685.0 Q4832.6 4685.0 4833.9 4685.0 Q4835.0 4685.0 4836.2 4684.8" /><path fill="none" stroke="#000000" stroke-width="3.000000"  stroke-linecap="round" d=" M4846.5 4649.1 Q4846.5 4649.1 4845.1 4657.0 Q4843.8 4664.8 4843.1 4667.0 Q4842.5 4669.1 4842.2 4670.8 Q4841.9 4672.5 4841.6 4673.8 Q4841.5 4675.1 4841.5 4676.5 Q4841.5 4677.8 4841.5 4678.8 Q4841.6 4679.9 4843.0 4680.9 Q4844.4 4682.0 4845.6 4682.4" /><path fill="none" stroke="#000000" stroke-width="3.000000"  stroke-linecap="round" d=" M4854.5 4650.9 Q4854.5 4650.9 4853.8 4654.8 Q4852.9 4658.6 4852.8 4661.0 Q4852.6 4663.2 4852.6 4666.1 Q4852.6 4668.8 4852.6 4671.5 Q4852.6 4674.1 4852.6 4676.0 Q4852.6 4677.8 4852.6 4678.9 Q4852.6 4680.1 4852.9 4681.4 Q4853.0 4682.8 4854.6 4682.8" /><path fill="none" stroke="#000000" stroke-width="3.000000"  stroke-linecap="round" d=" M4918.9 4654.1 Q4918.9 4654.1 4915.5 4653.5 Q4912.4 4652.8 4909.4 4654.2 Q4906.5 4655.6 4903.8 4657.5 Q4901.0 4659.2 4898.5 4661.4 Q4896.0 4663.5 4894.5 4665.1 Q4892.9 4666.6 4892.1 4668.1 Q4891.4 4669.4 4891.0 4670.6 Q4890.8 4671.6 4890.8 4673.6 Q4890.8 4675.5 4891.2 4677.2 Q4891.8 4679.1 4892.8 4680.8 Q4893.6 4682.6 4894.5 4683.4 Q4895.4 4684.2 4896.4 4684.8 Q4897.2 4685.1 4898.4 4685.5 Q4899.4 4685.8 4900.6 4685.8 Q4901.9 4685.8 4903.0 4685.8 Q4904.1 4685.8 4906.0 4685.0 Q4907.8 4684.2 4909.0 4683.5" /><path fill="none" stroke="#000000" stroke-width="3.000000"  stroke-linecap="round" d=" M4913.2 4679.6 Q4913.2 4679.6 4917.9 4678.9 Q4922.5 4678.1 4924.5 4676.4 Q4926.5 4674.6 4927.1 4672.9 Q4928.0 4671.2 4928.0 4670.1 Q4928.1 4669.0 4927.5 4668.1 Q4927.0 4667.2 4925.5 4667.2 Q4924.1 4667.2 4922.9 4668.0 Q4921.5 4668.6 4919.6 4670.6 Q4917.9 4672.5 4917.0 4674.2 Q4916.0 4676.1 4915.5 4677.4 Q4915.0 4678.8 4915.0 4680.1 Q4915.0 4681.6 4917.0 4682.6 Q4919.0 4683.5 4920.9 4683.5 Q4922.6 4683.5 4925.0 4683.5 Q4927.4 4683.5 4929.1 4682.8 Q4931.0 4682.1 4932.0 4681.4 Q4933.0 4680.6 4933.5 4679.8 Q4934.0 4678.9 4934.0 4677.9" /><path fill="none" stroke="#000000" stroke-width="3.000000"  stroke-linecap="round" d=" M4947.4 4648.8 Q4947.4 4648.8 4946.0 4652.2 Q4944.8 4655.6 4944.0 4658.0 Q4943.2 4660.2 4942.5 4663.5 Q4941.6 4666.6 4941.2 4668.6 Q4940.8 4670.6 4940.6 4672.1 Q4940.5 4673.6 4940.5 4674.6 Q4940.5 4675.6 4941.0 4676.6 Q4941.2 4677.8 4943.0 4678.1" /><path fill="none" stroke="#000000" stroke-width="3.000000"  stroke-linecap="round" d=" M4958.9 4646.4 Q4958.9 4646.4 4957.5 4651.2 Q4956.4 4656.2 4956.0 4659.5 Q4955.5 4662.6 4955.0 4665.9 Q4954.2 4669.0 4954.0 4670.6 Q4953.9 4672.5 4953.9 4673.6 Q4953.9 4674.9 4956.0 4676.5" /><path fill="none" stroke="#000000" stroke-width="3.000000"  stroke-linecap="round" d=" M4918.5 4711.6 Q4918.5 4711.6 4915.4 4710.5 Q4912.4 4709.1 4909.8 4709.9 Q4907.1 4710.6 4904.9 4712.6 Q4902.5 4714.6 4900.5 4716.5 Q4898.5 4718.4 4897.5 4719.6 Q4896.5 4721.1 4896.1 4722.1 Q4895.8 4723.2 4895.8 4724.4 Q4895.8 4725.4 4895.9 4727.2 Q4896.0 4729.2 4897.1 4731.8 Q4898.5 4734.4 4899.4 4736.2 Q4900.4 4738.1 4901.2 4739.5 Q4902.2 4740.9 4903.0 4741.5 Q4904.0 4742.1 4905.0 4742.6 Q4906.2 4743.1 4907.9 4743.1 Q4909.5 4743.1 4911.4 4743.0 Q4913.2 4742.8 4915.5 4742.0 Q4917.9 4741.2 4920.0 4740.1 Q4922.2 4739.1 4924.1 4737.8" /><path fill="none" stroke="#000000" stroke-width="3.000000"  stroke-linecap="round" d=" M4928.1 4730.8 Q4928.1 4730.8 4932.0 4730.6 Q4936.0 4730.6 4936.5 4729.2 Q4937.1 4727.9 4937.2 4726.6 Q4937.2 4725.4 4937.2 4724.4 Q4937.2 4723.2 4936.5 4722.6 Q4935.8 4721.8 4934.1 4721.9 Q4932.5 4722.0 4931.0 4723.2 Q4929.5 4724.6 4928.1 4726.1 Q4926.9 4727.6 4926.0 4729.0 Q4925.2 4730.1 4924.9 4731.2 Q4924.4 4732.5 4924.4 4733.8 Q4924.4 4735.1 4924.4 4736.1 Q4924.4 4737.2 4925.1 4738.1 Q4926.0 4739.0 4927.5 4739.6 Q4929.0 4740.2 4930.1 4740.6 Q4931.4 4741.1 4932.9 4741.4 Q4934.2 4741.6 4935.5 4741.6 Q4937.0 4741.6 4937.9 4741.6 Q4938.9 4741.6 4939.9 4741.4 Q4941.0 4741.1 4941.1 4738.6" /><path fill="none" stroke="#000000" stroke-width="3.000000"  stroke-linecap="round" d=" M4950.5 4708.5 Q4950.5 4708.5 4949.4 4714.5 Q4948.1 4720.5 4947.4 4723.2 Q4946.6 4726.1 4946.4 4727.9 Q4946.0 4729.6 4946.0 4730.9 Q4946.0 4732.1 4946.0 4733.1 Q4946.0 4734.1 4946.8 4735.2 Q4947.4 4736.5 4948.9 4737.2 Q4950.2 4738.1 4951.2 4738.1" /><path fill="none" stroke="#000000" stroke-width="3.000000"  stroke-linecap="round" d=" M4962.2 4704.1 Q4962.2 4704.1 4961.8 4709.5 Q4961.4 4715.0 4961.0 4717.4 Q4960.5 4719.9 4960.4 4721.9 Q4960.1 4723.9 4960.0 4725.9 Q4960.0 4727.9 4960.0 4729.6 Q4960.0 4731.2 4960.0 4732.9 Q4960.0 4734.4 4960.5 4735.8 Q4961.1 4737.2 4962.0 4738.1 Q4963.0 4739.0 4965.0 4739.6 Q4966.9 4740.5 4969.5 4740.4" /><path fill="none" stroke="#000000" stroke-width="3.000000"  stroke-linecap="round" d=" M4823.4 4794.8 Q4823.4 4794.8 4820.5 4793.4 Q4817.9 4791.9 4816.8 4791.9 Q4815.8 4791.8 4812.6 4792.1 Q4809.6 4792.6 4807.2 4794.2 Q4804.9 4795.9 4802.9 4798.0 Q4800.9 4800.1 4799.5 4802.4 Q4798.1 4804.6 4797.5 4806.6 Q4796.9 4808.5 4796.6 4810.2 Q4796.5 4812.1 4796.5 4814.6 Q4796.5 4817.2 4796.9 4819.6 Q4797.2 4822.1 4798.1 4824.1 Q4799.1 4826.1 4799.8 4827.6 Q4800.2 4828.9 4801.1 4829.8 Q4802.0 4830.6 4803.0 4831.2 Q4804.0 4832.0 4805.0 4832.2 Q4806.0 4832.5 4807.6 4832.5 Q4809.2 4832.5 4810.8 4832.1 Q4812.2 4831.8 4813.6 4831.1 Q4815.0 4830.4 4815.9 4829.9 Q4816.6 4829.2 4817.8 4827.6" /><path fill="none" stroke="#000000" stroke-width="3.000000"  stroke-linecap="round" d=" M4826.1 4819.6 Q4826.1 4819.6 4830.4 4820.6 Q4834.5 4821.9 4835.5 4820.9 Q4836.5 4820.0 4836.9 4818.9 Q4837.2 4817.9 4837.2 4816.8 Q4837.2 4815.8 4836.8 4814.8 Q4836.2 4813.9 4835.1 4813.9 Q4834.0 4813.9 4832.5 4814.2 Q4831.0 4814.8 4829.8 4816.2 Q4828.5 4817.9 4827.5 4820.1 Q4826.4 4822.1 4825.9 4823.9 Q4825.2 4825.5 4825.0 4826.8 Q4824.9 4828.1 4824.9 4829.5 Q4824.9 4830.8 4826.5 4832.2 Q4828.1 4833.6 4830.0 4834.1 Q4831.8 4834.4 4833.5 4834.4 Q4835.1 4834.4 4836.9 4834.4 Q4838.5 4834.4 4839.8 4834.4 Q4840.9 4834.4 4842.2 4833.8" /><path fill="none" stroke="#000000" stroke-width="3.000000"  stroke-linecap="round" d=" M4851.8 4788.6 Q4851.8 4788.6 4851.6 4794.0 Q4851.5 4799.4 4851.1 4803.1 Q4850.8 4807.0 4850.0 4810.2 Q4849.2 4813.6 4848.8 4815.8 Q4848.4 4817.9 4848.1 4819.1 Q4848.0 4820.5 4848.0 4821.6 Q4848.0 4822.8 4848.2 4824.1 Q4848.5 4825.5 4849.9 4826.6 Q4851.1 4827.8 4852.5 4828.2 Q4853.9 4828.6 4855.5 4828.6 Q4857.0 4828.6 4858.4 4826.9" /><path fill="none" stroke="#000000" stroke-width="3.000000"  stroke-linecap="round" d=" M4866.0 4784.6 Q4866.0 4784.6 4865.6 4789.1 Q4865.2 4793.6 4865.0 4797.2 Q4864.6 4800.9 4864.2 4804.0 Q4863.8 4807.1 4863.5 4809.1 Q4863.1 4811.1 4863.0 4812.6 Q4863.0 4814.1 4863.0 4815.4 Q4863.0 4816.6 4863.0 4817.9 Q4863.1 4819.0 4864.0 4820.1 Q4864.9 4821.2 4866.4 4822.2 Q4867.8 4823.4 4869.5 4823.8" /><path fill="none" stroke="#000000" stroke-width="3.000000"  stroke-linecap="round" d=" M4834.2 4885.9 Q4834.2 4885.9 4836.2 4888.2 Q4838.2 4890.6 4839.4 4891.2" /><path fill="none" stroke="#000000" stroke-width="3.000000"  stroke-linecap="round" d=" M4940.1 4809.5 Q4940.1 4809.5 4944.2 4811.8 Q4948.4 4814.1 4949.4 4815.0" /><path fill="none" stroke="#000000" stroke-width="3.000000"  stroke-linecap="round" d=" M5039.6 4719.2 Q5039.6 4719.2 5043.0 4720.4 Q5046.4 4721.4 5048.0 4722.0" /><path fill="none" stroke="#000000" stroke-width="3.000000"  stroke-linecap="round" d=" M5031.6 4651.1 Q5031.6 4651.1 5028.1 4650.6 Q5024.8 4650.4 5023.9 4650.4 Q5022.9 4650.4 5021.6 4650.4 Q5020.4 4650.4 5019.4 4650.4 Q5018.2 4650.4 5017.1 4650.6 Q5016.0 4651.1 5014.9 4652.0 Q5013.8 4652.8 5012.5 4654.2 Q5011.2 4655.6 5010.6 4657.0 Q5010.0 4658.4 5009.5 4660.6 Q5009.0 4662.6 5008.6 4664.6 Q5008.4 4666.6 5008.4 4669.0 Q5008.4 4671.5 5008.4 4673.1 Q5008.4 4674.9 5008.5 4676.5 Q5008.8 4678.0 5009.5 4679.0 Q5010.2 4680.1 5011.4 4680.9 Q5012.4 4681.8 5013.2 4682.2 Q5014.0 4682.8 5015.2 4683.1 Q5016.4 4683.5 5017.4 4683.6 Q5018.2 4683.9 5019.4 4684.0 Q5020.4 4684.1 5021.9 4684.1" /><path fill="none" stroke="#000000" stroke-width="3.000000"  stroke-linecap="round" d=" M5032.5 4676.1 Q5032.5 4676.1 5036.0 4676.2 Q5039.5 4676.5 5041.0 4675.4 Q5042.5 4674.4 5043.1 4673.0 Q5043.9 4671.6 5044.0 4670.6 Q5044.2 4669.6 5044.2 4667.8 Q5044.2 4666.0 5043.2 4665.5 Q5042.4 4665.0 5040.2 4665.0 Q5038.1 4665.0 5037.1 4665.2 Q5036.2 4665.6 5035.5 4666.4 Q5034.9 4667.1 5034.4 4669.1 Q5034.0 4671.1 5034.0 4672.2 Q5034.0 4673.4 5034.2 4674.6 Q5034.5 4676.1 5035.4 4677.2 Q5036.2 4678.6 5037.2 4679.6 Q5038.2 4680.6 5039.5 4681.2 Q5040.5 4682.0 5041.9 4682.2 Q5043.0 4682.6 5044.2 4682.6 Q5045.4 4682.6 5046.4 4682.6 Q5047.5 4682.6 5049.0 4682.0 Q5050.5 4681.4 5051.5 4680.8" /><path fill="none" stroke="#000000" stroke-width="3.000000"  stroke-linecap="round" d=" M5061.5 4645.6 Q5061.5 4645.6 5061.0 4650.1 Q5060.5 4654.6 5060.4 4657.4 Q5060.2 4660.1 5059.8 4662.6 Q5059.2 4665.4 5059.0 4667.2 Q5058.6 4669.1 5058.5 4670.6 Q5058.5 4672.1 5058.5 4673.5 Q5058.5 4674.9 5058.6 4676.2 Q5058.9 4677.6 5060.0 4678.6 Q5061.0 4679.6 5062.0 4680.5 Q5062.9 4681.1 5063.8 4681.8 Q5064.5 4682.4 5066.8 4682.5" /><path fill="none" stroke="#000000" stroke-width="3.000000"  stroke-linecap="round" d=" M5078.4 4650.0 Q5078.4 4650.0 5078.0 4654.1 Q5077.5 4658.1 5077.5 4660.1 Q5077.5 4662.1 5077.5 4664.1 Q5077.4 4666.0 5077.4 4668.2 Q5077.4 4670.6 5077.4 4672.6 Q5077.4 4674.6 5077.4 4676.2 Q5077.4 4678.0 5077.5 4679.1 Q5077.5 4680.5 5078.0 4681.5 Q5078.5 4682.6 5079.4 4683.1 Q5080.2 4683.6 5081.9 4684.1 Q5083.5 4684.5 5086.6 4684.5 Q5089.8 4684.5 5092.5 4683.1" /><path fill="none" stroke="#000000" stroke-width="3.000000"  stroke-linecap="round" d=" M5134.4 4664.5" /><path fill="none" stroke="#000000" stroke-width="3.000000"  stroke-linecap="round" d=" M5128.2 4667.5 Q5128.2 4667.5 5131.5 4669.1 Q5134.8 4670.9 5136.0 4671.6" /><path fill="none" stroke="#000000" stroke-width="3.000000"  stroke-linecap="round" d=" M4656.1 4656.1 Q4656.1 4656.1 4652.8 4654.5 Q4649.4 4652.9 4648.4 4652.9 Q4647.4 4652.9 4646.1 4652.9 Q4644.9 4652.9 4643.6 4653.7 Q4642.3 4654.5 4641.1 4655.8 Q4640.0 4657.0 4639.0 4658.5 Q4638.1 4659.9 4637.5 4661.2 Q4636.9 4662.5 4636.3 4664.1 Q4635.8 4665.7 4635.4 4667.3 Q4635.0 4668.8 4634.9 4670.0 Q4634.7 4671.2 4634.7 4672.6 Q4634.7 4673.9 4634.7 4675.3 Q4634.7 4676.6 4635.0 4677.6 Q4635.4 4678.6 4636.1 4679.5 Q4636.9 4680.3 4637.7 4681.0 Q4638.5 4681.7 4639.5 4682.4 Q4640.5 4683.0 4641.8 4683.4 Q4643.0 4683.7 4644.2 4683.9 Q4645.4 4684.1 4646.6 4684.2 Q4647.8 4684.3 4649.0 4684.3 Q4650.3 4684.3 4651.7 4684.0 Q4653.0 4683.7 4654.1 4683.1 Q4655.2 4682.5 4656.0 4681.6 Q4656.8 4680.8 4657.6 4679.6 Q4658.3 4678.3 4658.8 4676.9 Q4659.4 4675.6 4659.7 4674.2 Q4659.9 4672.8 4660.2 4671.6 Q4660.5 4670.3 4660.6 4668.7 Q4660.7 4667.2 4660.7 4665.8 Q4660.7 4664.5 4660.7 4663.3 Q4660.7 4662.1 4660.7 4660.9 Q4660.7 4659.8 4660.4 4658.8 Q4660.1 4657.8 4659.4 4656.4 Q4658.7 4655.0 4657.8 4654.3" /><path fill="none" stroke="#000000" stroke-width="3.000000"  stroke-linecap="round" d=" M4837.4 4554.9 Q4837.4 4554.9 4834.3 4554.4 Q4831.2 4553.9 4830.3 4553.9 Q4829.4 4553.9 4827.6 4553.9 Q4825.8 4553.9 4824.8 4553.9 Q4823.8 4553.9 4822.9 4553.9 Q4822.0 4553.9 4820.9 4553.9 Q4819.8 4553.9 4818.9 4554.1 Q4818.0 4554.4 4817.1 4554.8 Q4816.2 4555.3 4815.2 4555.8 Q4814.2 4556.4 4812.6 4557.6 Q4811.1 4558.8 4809.7 4560.2 Q4808.3 4561.7 4807.9 4562.5 Q4807.4 4563.3 4807.0 4564.2 Q4806.5 4565.1 4806.2 4566.0 Q4805.8 4566.9 4805.3 4568.4 Q4804.7 4569.8 4804.5 4571.5 Q4804.3 4573.1 4804.3 4574.7 Q4804.3 4576.4 4804.3 4578.0 Q4804.3 4579.6 4805.0 4581.3 Q4805.6 4582.9 4806.6 4584.3 Q4807.6 4585.6 4808.3 4586.4 Q4809.1 4587.1 4810.4 4588.2 Q4811.8 4589.3 4812.7 4589.8 Q4813.6 4590.4 4814.6 4590.7 Q4815.6 4591.1 4816.7 4591.5 Q4817.8 4591.8 4818.8 4592.0 Q4819.8 4592.2 4821.1 4592.3 Q4822.3 4592.4 4823.7 4592.5 Q4825.1 4592.5 4826.3 4592.5 Q4827.6 4592.5 4828.9 4592.5 Q4830.1 4592.5 4831.7 4592.2 Q4833.2 4591.8 4834.6 4591.3 Q4836.0 4590.7 4837.2 4590.2 Q4838.5 4589.6 4839.7 4588.9 Q4840.9 4588.2 4842.0 4587.5 Q4843.0 4586.7 4843.8 4586.0 Q4844.5 4585.3 4845.1 4584.5 Q4845.8 4583.6 4846.1 4582.7 Q4846.5 4581.8 4846.9 4580.1 Q4847.4 4578.4 4847.6 4577.5 Q4847.8 4576.6 4847.9 4575.3 Q4847.9 4574.0 4847.9 4572.8 Q4847.9 4571.7 4847.9 4570.6 Q4847.9 4569.5 4847.9 4567.7 Q4847.9 4566.0 4847.4 4564.3 Q4846.9 4562.6 4846.4 4561.8 Q4845.9 4560.9 4844.8 4559.7 Q4843.6 4558.4 4842.2 4557.6 Q4840.9 4556.8 4839.5 4556.1 Q4838.1 4555.5 4836.5 4555.1 Q4834.9 4554.8 4833.3 4554.7" /><path fill="none" stroke="#000000" stroke-width="3.000000"  stroke-linecap="round" d=" M4645.0 4719.5 Q4645.0 4719.5 4645.4 4725.7 Q4645.8 4731.9 4645.9 4734.2 Q4646.1 4736.6 4646.3 4738.4 Q4646.5 4740.2 4646.7 4742.2 Q4646.9 4744.2 4647.0 4745.9 Q4647.2 4747.7 4647.4 4749.3 Q4647.6 4750.9 4647.7 4752.4 Q4647.8 4753.8 4647.9 4755.1 Q4647.9 4756.4 4648.0 4757.3 Q4648.1 4758.2 4648.2 4759.6" /><path fill="none" stroke="#000000" stroke-width="3.000000"  stroke-linecap="round" d=" M4931.1 4549.7 Q4931.1 4549.7 4930.9 4554.8 Q4930.6 4559.8 4930.7 4562.6 Q4930.8 4565.3 4930.9 4567.8 Q4931.0 4570.4 4931.0 4572.8 Q4931.0 4575.3 4931.0 4577.3 Q4931.0 4579.3 4931.0 4581.7 Q4931.0 4584.2 4931.0 4586.1 Q4931.0 4588.0 4931.0 4589.9 Q4931.0 4591.8 4931.0 4593.2 Q4931.0 4594.5 4931.0 4595.6 Q4931.0 4596.7 4931.0 4597.7 Q4931.0 4598.7 4931.1 4599.6" /><path fill="none" stroke="#000000" stroke-width="3.000000"  stroke-linecap="round" d=" M5015.3 4555.5 Q5015.3 4555.5 5021.5 4553.9 Q5027.8 4552.3 5030.3 4552.1 Q5032.9 4551.9 5035.7 4551.8 Q5038.5 4551.7 5041.3 4551.7 Q5044.0 4551.7 5046.5 4551.7 Q5048.9 4551.7 5051.0 4552.3 Q5053.1 4552.9 5055.1 4553.9 Q5057.0 4555.0 5058.6 4556.5 Q5060.2 4558.0 5061.4 4559.9 Q5062.5 4561.8 5063.3 4563.8 Q5064.0 4565.9 5064.2 4567.6 Q5064.4 4569.3 5064.4 4571.7 Q5064.4 4574.0 5063.7 4576.0 Q5063.1 4578.0 5061.8 4579.9 Q5060.4 4581.8 5058.9 4583.5 Q5057.4 4585.2 5055.5 4586.5 Q5053.6 4587.8 5051.4 4589.4 Q5049.1 4591.0 5046.6 4592.5 Q5044.0 4594.1 5041.2 4595.5 Q5038.3 4596.9 5035.4 4597.9 Q5032.5 4599.0 5030.4 4599.6 Q5028.3 4600.3 5026.6 4600.6 Q5024.9 4600.9 5023.8 4601.1 Q5022.7 4601.4 5021.5 4601.5 Q5020.4 4601.6 5022.7 4600.7 Q5025.1 4599.7 5027.3 4599.3 Q5029.5 4599.0 5031.8 4598.7 Q5034.2 4598.4 5036.9 4598.3 Q5039.7 4598.2 5042.6 4598.2 Q5045.5 4598.2 5048.3 4598.2 Q5051.2 4598.2 5054.0 4598.2 Q5056.8 4598.2 5059.0 4598.2 Q5061.2 4598.2 5063.5 4598.3 Q5065.7 4598.4 5067.2 4598.4 Q5068.7 4598.4 5069.8 4598.4 Q5070.8 4598.4 5072.1 4598.5" /><path fill="none" stroke="#000000" stroke-width="3.000000"  stroke-linecap="round" d=" M5143.8 4551.5 Q5143.8 4551.5 5144.3 4547.7 Q5144.7 4543.9 5146.4 4542.1 Q5148.0 4540.3 5150.1 4538.9 Q5152.1 4537.5 5154.1 4536.7 Q5156.1 4535.9 5157.9 4535.6 Q5159.6 4535.3 5162.0 4535.3 Q5164.4 4535.3 5166.2 4535.5 Q5168.0 4535.7 5169.7 4536.8 Q5171.4 4538.0 5173.0 4539.8 Q5174.7 4541.7 5175.6 4543.3 Q5176.5 4545.0 5176.9 4547.3 Q5177.3 4549.6 5177.3 4552.0 Q5177.3 4554.5 5177.1 4557.3 Q5176.8 4560.1 5175.4 4562.5 Q5174.0 4564.8 5172.3 4566.8 Q5170.7 4568.9 5168.7 4570.3 Q5166.8 4571.7 5164.5 4572.7 Q5162.3 4573.8 5160.2 4574.6 Q5158.2 4575.4 5156.1 4575.8 Q5154.0 4576.2 5152.7 4576.4 Q5151.4 4576.6 5150.5 4576.6 Q5149.6 4576.6 5150.8 4575.2 Q5151.9 4573.8 5153.8 4573.2 Q5155.8 4572.5 5158.0 4572.1 Q5160.1 4571.7 5162.7 4571.7 Q5165.2 4571.7 5167.5 4571.7 Q5169.8 4571.7 5172.2 4572.1 Q5174.5 4572.5 5176.4 4573.6 Q5178.2 4574.7 5179.7 4576.1 Q5181.2 4577.6 5182.3 4579.2 Q5183.3 4580.8 5183.8 4582.6 Q5184.4 4584.5 5184.4 4586.2 Q5184.5 4588.0 5184.5 4590.1 Q5184.5 4592.2 5183.7 4594.0 Q5183.0 4595.9 5181.7 4597.6 Q5180.5 4599.4 5178.7 4601.1 Q5177.0 4602.9 5174.9 4604.3 Q5172.8 4605.7 5170.8 4606.6 Q5168.9 4607.5 5166.1 4608.3 Q5163.3 4609.0 5161.4 4609.4 Q5159.4 4609.7 5157.7 4609.9 Q5155.9 4610.1 5154.5 4610.1 Q5153.1 4610.1 5152.1 4610.1 Q5151.0 4610.1 5150.1 4610.1 Q5149.3 4610.1 5148.5 4609.7" /><path fill="none" stroke="#000000" stroke-width="3.000000"  stroke-linecap="round" d=" M4619.2 4803.0 Q4619.2 4803.0 4624.8 4801.1 Q4630.4 4799.1 4633.3 4799.1 Q4636.1 4799.1 4639.6 4799.1 Q4643.0 4799.1 4645.7 4800.1 Q4648.5 4801.2 4650.8 4802.4 Q4653.1 4803.7 4654.7 4805.0 Q4656.3 4806.3 4657.3 4807.9 Q4658.3 4809.5 4658.7 4810.9 Q4659.0 4812.4 4659.0 4814.5 Q4659.0 4816.7 4657.9 4819.2 Q4656.8 4821.6 4655.5 4823.7 Q4654.2 4825.7 4652.7 4827.6 Q4651.1 4829.6 4649.2 4831.4 Q4647.4 4833.3 4645.3 4834.8 Q4643.2 4836.4 4640.8 4838.0 Q4638.4 4839.5 4636.4 4840.6 Q4634.5 4841.6 4632.4 4842.4 Q4630.4 4843.2 4629.2 4843.4 Q4628.0 4843.6 4630.0 4842.6 Q4632.1 4841.6 4633.7 4840.8 Q4635.4 4840.1 4637.2 4839.4 Q4639.1 4838.6 4640.6 4838.2 Q4642.0 4837.7 4643.7 4837.4 Q4645.4 4837.1 4646.9 4837.0 Q4648.5 4836.8 4649.7 4836.7 Q4650.9 4836.6 4652.5 4836.3 Q4654.0 4836.0 4655.1 4835.9 Q4656.1 4835.7 4657.4 4835.4" /><path fill="none" stroke="#000000" stroke-width="3.000000"  stroke-linecap="round" d=" M4622.3 4899.4 Q4622.3 4899.4 4622.2 4894.2 Q4622.1 4889.0 4624.8 4886.2 Q4627.5 4883.3 4630.7 4881.2 Q4633.9 4879.0 4637.5 4877.5 Q4641.1 4875.9 4644.0 4875.3 Q4646.8 4874.6 4649.3 4874.5 Q4651.8 4874.4 4654.1 4874.4 Q4656.4 4874.4 4658.2 4875.1 Q4660.0 4875.7 4660.9 4876.7 Q4661.8 4877.8 4662.3 4878.9 Q4662.7 4880.0 4662.9 4881.6 Q4663.1 4883.3 4663.1 4885.4 Q4663.1 4887.5 4661.9 4889.9 Q4660.7 4892.3 4658.9 4894.4 Q4657.2 4896.4 4655.2 4898.1 Q4653.3 4899.7 4651.5 4900.8 Q4649.6 4901.9 4648.0 4902.6 Q4646.5 4903.2 4645.4 4903.6 Q4644.3 4904.0 4645.3 4903.2 Q4646.3 4902.5 4649.1 4901.8 Q4651.8 4901.2 4654.4 4900.9 Q4657.0 4900.6 4659.6 4900.6 Q4662.2 4900.6 4664.2 4901.0 Q4666.2 4901.4 4667.6 4902.6 Q4669.0 4903.8 4669.5 4905.2 Q4670.1 4906.6 4670.1 4908.1 Q4670.1 4909.7 4669.6 4911.7 Q4669.2 4913.8 4667.3 4915.9 Q4665.5 4918.0 4663.6 4919.7 Q4661.6 4921.5 4659.0 4923.2 Q4656.4 4924.8 4654.0 4926.1 Q4651.6 4927.4 4649.1 4928.3 Q4646.5 4929.3 4644.4 4929.7 Q4642.4 4930.2 4640.1 4930.2 Q4637.8 4930.2 4635.1 4930.2" /></svg>